<svg width="82" height="104" viewBox="0 0 82 104" fill="none" xmlns="http://www.w3.org/2000/svg">
<path d="M1 103V1H80.6255V103H1Z" fill="#0A0C17" stroke="#E4BC53" stroke-width="2"/>
<path d="M76.3962 4.7157H5.229V81.1863H76.3962V4.7157Z" fill="#E4BC53" stroke="#E4BC53"/>
<path d="M8.31952 85.1735V90.8318H12.342V94.3239H8.31952V99.8854H5.10156V85.1735H8.31952Z" fill="#E4BC53"/>
<path d="M16.3818 90.8318V99.8854H13.1638V90.8318H16.3818ZM16.3818 85.1735V88.6654H13.1638V85.1735H16.3818Z" fill="#E4BC53"/>
<path d="M17.8005 85.1735H26.1741C27.1488 85.1735 27.9186 85.2596 28.4839 85.4319C29.0318 85.5974 29.5131 85.9996 29.9284 86.6391C30.1937 87.0488 30.384 87.5374 30.4992 88.1051C30.6148 88.6654 30.6724 89.3875 30.6724 90.2715V99.8854H27.4544V90.4331C27.4544 90.0306 27.4314 89.7288 27.3852 89.5277C27.3449 89.3266 27.2669 89.1576 27.1516 89.0212C27.0422 88.8917 26.9008 88.802 26.7279 88.7518C26.5606 88.6942 26.3384 88.6654 26.0616 88.6654H21.0185V99.8854H17.8005V85.1735ZM25.7331 90.8318V99.8854H22.7486V90.8318H25.7331Z" fill="#E4BC53"/>
<path d="M38.5616 85.1735L42.2554 99.8854H31.1482L33.5444 90.8318H36.4855L35.2226 96.3935H38.2588L35.0581 85.1735H38.5616Z" fill="#E4BC53"/>
<path d="M49.8848 85.1735L45.1962 92.1792L50.2047 99.8854H46.0354L42.2551 93.9683V90.8427L46.0354 85.1735H49.8848Z" fill="#E4BC53"/>
<path d="M56.6322 84.8824C57.3299 84.8824 58.0104 85.0152 58.6736 85.281C59.3425 85.5469 59.9393 85.9241 60.4643 86.4128C61.2081 87.1026 61.7706 87.972 62.1511 89.0212C62.5376 90.0701 62.7307 91.2631 62.7307 92.5995C62.7307 93.5335 62.6123 94.4282 62.3759 95.2831C62.1453 96.1383 61.8109 96.9 61.3726 97.5681C60.8133 98.4304 60.1414 99.0806 59.357 99.5191C58.5785 99.9573 57.7048 100.176 56.7358 100.176C55.767 100.176 54.8819 99.9644 54.0802 99.5405C53.2843 99.1095 52.5982 98.477 52.0214 97.6435C51.0582 96.2497 50.5769 94.5646 50.5769 92.5888C50.5769 91.4318 50.747 90.3505 51.0873 89.3444C51.4332 88.3314 51.9204 87.4762 52.5492 86.7793C53.6853 85.5148 55.0462 84.8824 56.6322 84.8824ZM56.6407 88.2667C55.7872 88.2667 55.1183 88.6439 54.6339 89.3985C54.1552 90.1456 53.9159 91.1805 53.9159 92.5024C53.9159 93.2138 53.9937 93.8641 54.1495 94.4534C54.3051 95.0354 54.5271 95.5169 54.8156 95.8977C55.277 96.4939 55.8968 96.7921 56.6753 96.7921C57.5232 96.7921 58.1862 96.4149 58.665 95.6604C59.1494 94.9059 59.3917 93.8605 59.3917 92.5241C59.3917 91.2162 59.1435 90.1815 58.6476 89.4199C58.1574 88.6511 57.4885 88.2667 56.6407 88.2667Z" fill="#E4BC53"/>
<path d="M63.907 85.1735H72.2805C73.2551 85.1735 74.025 85.2596 74.5902 85.4319C75.1381 85.5974 75.6197 85.9996 76.035 86.6391C76.3003 87.0488 76.4906 87.5374 76.6059 88.1051C76.7212 88.6654 76.7788 89.3875 76.7788 90.2715V99.8854H73.561V90.4331C73.561 90.0306 73.5378 89.7288 73.4916 89.5277C73.4513 89.3266 73.3735 89.1576 73.2582 89.0212C73.1485 88.8917 73.0072 88.802 72.8343 88.7518C72.6669 88.6942 72.445 88.6654 72.1682 88.6654H67.1251V99.8854H63.907V85.1735ZM71.8394 90.8318V99.8854H68.855V90.8318H71.8394Z" fill="#E4BC53"/>
<path d="M13.1365 21.2843L11.4785 18.4804L31.1196 10.9608L36.8589 41.0392C58.5917 23.502 68.1911 49.8759 70.2744 65.2549L55.3522 69.5882C55.8624 66.1471 56.0664 56.6392 52.8014 46.1373C49.5364 35.6353 41.3228 41.7614 37.6242 46.1373L42.3432 71.1176L30.8646 74.9412L29.2066 72.3922L34.5632 70.7353L32.9052 66.5294L27.9312 68.1863L26.7833 65.7647L32.2675 64.3627L30.482 58.8824L25.6354 60.4118L24.6151 58.1176L29.8443 56.5882L27.9312 51.1078L23.2122 52.6373L21.9368 50.2157L27.0384 48.5588L25.6354 44.2255L21.044 45.8824L19.6411 43.0784L24.6151 41.8039L22.5745 35.4314L18.3657 36.9608L17.3453 34.2843L21.9368 32.6275L19.6411 26.3824L15.6873 27.9118L14.4119 25.1078L18.7483 23.451L17.3453 19.2451L13.1365 21.2843Z" fill="#0A0C17"/>
</svg>
