<svg width="298" height="67" viewBox="0 0 298 67" fill="none" xmlns="http://www.w3.org/2000/svg">
<g filter="url(#filter0_ddi_96_641)">
<path d="M32.7673 42.68C33.3219 42.68 33.8019 42.488 34.2073 42.104C34.6126 41.72 34.8259 41.2507 34.8472 40.696V32.536H24.7673V40.76C24.7673 43.32 24.1166 45.3573 22.8153 46.872C21.7913 48.0667 20.3193 48.664 18.3993 48.664C17.7806 48.664 17.1086 48.5893 16.3833 48.44L16.3193 48.12C17.8979 47.4587 18.9113 46.4773 19.3593 45.176C19.7646 44.0667 19.9673 42.5947 19.9673 40.76V22.904C19.9459 22.3493 19.7326 21.88 19.3273 21.496C18.9433 21.112 18.4739 20.92 17.9193 20.92H17.5033V20.6H27.2313V20.92H26.8153C26.0473 20.92 25.4713 21.24 25.0873 21.88C24.8953 22.1787 24.7886 22.52 24.7673 22.904V31.16H34.8472V23.48C34.8472 20.984 35.6259 19 37.1833 17.528C38.4206 16.312 39.9779 15.704 41.8553 15.704C42.2819 15.704 42.7299 15.736 43.1993 15.8L43.2633 16.12C41.7059 16.6747 40.6926 17.656 40.2233 19.064C39.8393 20.216 39.6366 21.688 39.6153 23.48V40.664C39.6366 41.432 39.9779 42.008 40.6393 42.392C40.9593 42.584 41.3113 42.68 41.6953 42.68H42.0793V43H32.3833V42.68H32.7673ZM45.1038 42.68C45.6584 42.68 46.1278 42.488 46.5118 42.104C46.9171 41.6987 47.1304 41.2187 47.1518 40.664V22.904C47.1304 22.3493 46.9171 21.88 46.5118 21.496C46.1278 21.112 45.6584 20.92 45.1038 20.92H44.6878V20.6H54.4158L54.3838 20.92H53.9998C53.4451 20.92 52.9651 21.112 52.5598 21.496C52.1544 21.88 51.9518 22.3493 51.9518 22.904V40.664C51.9518 41.2187 52.1544 41.6987 52.5598 42.104C52.9651 42.488 53.4451 42.68 53.9998 42.68H54.3838L54.4158 43H44.6878V42.68H45.1038ZM85.9915 42.68H86.5035V43H76.9035V42.712H77.3835C77.7462 42.712 78.0555 42.5733 78.3115 42.296C78.5675 41.9973 78.6742 41.6773 78.6315 41.336L77.3835 29.72L71.3675 40.088C70.5782 41.4107 70.1728 42.5947 70.1515 43.64H69.8315L61.6075 29.816L60.3595 41.336C60.3168 41.6773 60.4235 41.9973 60.6795 42.296C60.9355 42.5733 61.2448 42.712 61.6075 42.712H62.0875V43H55.3995V42.68H55.9115C56.5088 42.68 57.0208 42.4987 57.4475 42.136C57.8955 41.7733 58.1622 41.2827 58.2475 40.664L60.9035 20.152H61.1915L71.1115 36.472L80.6475 20.152H80.9355L83.6555 40.664C83.7622 41.2827 84.0288 41.7733 84.4555 42.136C84.9035 42.4987 85.4155 42.68 85.9915 42.68ZM109.804 42.68H110.092V43H99.8835V42.68H100.172C100.641 42.68 100.982 42.5413 101.196 42.264C101.43 41.9653 101.548 41.688 101.548 41.432C101.548 41.176 101.494 40.92 101.388 40.664L99.8195 36.728H92.3315L90.6675 40.664C90.5608 40.9413 90.5075 41.208 90.5075 41.464C90.5075 41.6987 90.6142 41.9653 90.8275 42.264C91.0622 42.5413 91.4248 42.68 91.9155 42.68H92.1715V43H85.3235V42.68H85.6115C86.1022 42.68 86.5928 42.5307 87.0835 42.232C87.5742 41.9333 87.9795 41.4853 88.2995 40.888L95.6915 24.152C96.6942 22.04 97.2275 20.6427 97.2915 19.96H97.5795L107.084 40.824C107.404 41.4427 107.809 41.912 108.3 42.232C108.79 42.5307 109.292 42.68 109.804 42.68ZM92.8755 35.384H99.2755L96.1715 27.512L92.8755 35.384ZM110.854 42.68C111.408 42.68 111.878 42.488 112.262 42.104C112.667 41.6987 112.88 41.2187 112.902 40.664V22.904C112.88 22.136 112.528 21.56 111.846 21.176C111.547 21.0053 111.216 20.92 110.854 20.92H110.438V20.6H120.166L120.134 20.92H119.75C118.982 20.92 118.395 21.2507 117.99 21.912C117.798 22.2107 117.702 22.5413 117.702 22.904V40.664C117.702 41.2187 117.904 41.6987 118.31 42.104C118.715 42.488 119.195 42.68 119.75 42.68H120.134L120.166 43H110.438V42.68H110.854ZM133.958 43H131.334C128.091 43 125.798 42.1147 124.454 40.344C120.635 35.16 118.726 32.5253 118.726 32.44L126.31 22.392C126.48 22.1787 126.566 21.9867 126.566 21.816C126.566 21.6453 126.534 21.496 126.47 21.368C126.299 21.048 126 20.888 125.574 20.888H125.254V20.6H132.582V20.888H132.454C131.024 20.888 129.862 21.4 128.966 22.424L122.726 29.816L130.694 40.696C131.675 41.976 132.763 42.6373 133.958 42.68V43ZM146.205 20.152C150.152 20.152 153.288 21.1973 155.613 23.288C157.938 25.3787 159.101 28.216 159.101 31.8C159.101 35.384 157.938 38.2213 155.613 40.312C153.288 42.4027 150.152 43.448 146.205 43.448C142.258 43.448 139.122 42.4027 136.797 40.312C134.472 38.2213 133.309 35.384 133.309 31.8C133.309 29.432 133.832 27.3733 134.877 25.624C135.944 23.8533 137.448 22.4987 139.389 21.56C141.33 20.6213 143.602 20.152 146.205 20.152ZM140.605 39.352C141.992 41.1867 143.858 42.104 146.205 42.104C148.552 42.104 150.408 41.1867 151.773 39.352C153.16 37.496 153.853 34.9787 153.853 31.8C153.853 29.7093 153.544 27.8853 152.925 26.328C152.306 24.7707 151.421 23.576 150.269 22.744C149.117 21.912 147.762 21.496 146.205 21.496C143.858 21.496 141.992 22.424 140.605 24.28C139.24 26.1147 138.557 28.6213 138.557 31.8C138.557 34.9787 139.24 37.496 140.605 39.352ZM190.273 42.68H190.785V43H181.185V42.712H181.665C182.027 42.712 182.337 42.5733 182.593 42.296C182.849 41.9973 182.955 41.6773 182.913 41.336L181.665 29.72L175.649 40.088C174.859 41.4107 174.454 42.5947 174.433 43.64H174.113L165.889 29.816L164.641 41.336C164.598 41.6773 164.705 41.9973 164.961 42.296C165.217 42.5733 165.526 42.712 165.889 42.712H166.369V43H159.681V42.68H160.193C160.79 42.68 161.302 42.4987 161.729 42.136C162.177 41.7733 162.443 41.2827 162.529 40.664L165.185 20.152H165.473L175.393 36.472L184.929 20.152H185.217L187.937 40.664C188.043 41.2827 188.31 41.7733 188.737 42.136C189.185 42.4987 189.697 42.68 190.273 42.68ZM227.589 14.104C227.866 14.104 228.154 14.1147 228.453 14.136V14.456C225.935 14.648 224.122 15.8427 223.013 18.04C222.287 19.4693 221.925 21.2827 221.925 23.48V34.904C221.882 37.592 221.018 39.6933 219.333 41.208C217.647 42.7013 215.237 43.448 212.101 43.448C208.986 43.448 206.501 42.68 204.645 41.144C202.789 39.5867 201.871 37.5173 201.893 34.936V22.488C201.893 22.04 201.722 21.6667 201.381 21.368C201.061 21.0693 200.666 20.92 200.197 20.92H199.685V20.6H208.901V20.92H208.389C207.727 20.92 207.237 21.176 206.917 21.688C206.767 21.9227 206.693 22.1787 206.693 22.456V34.68C206.693 36.9413 207.279 38.7333 208.453 40.056C209.626 41.3787 211.173 42.04 213.093 42.04C213.114 42.04 213.125 42.04 213.125 42.04C213.125 42.04 213.135 42.04 213.157 42.04C215.055 42.04 216.613 41.4213 217.829 40.184C219.045 38.9467 219.653 37.2507 219.653 35.096V23.48C219.653 20.6 220.41 18.3173 221.925 16.632C223.461 14.9467 225.349 14.104 227.589 14.104ZM250.927 32.6H250.447C249.935 32.6 249.54 32.728 249.263 32.984C248.985 33.2187 248.847 33.5707 248.847 34.04V39.32C248.015 40.408 246.639 41.368 244.719 42.2C242.799 43.032 240.644 43.448 238.255 43.448C234.607 43.448 231.673 42.4027 229.455 40.312C227.257 38.2 226.159 35.3627 226.159 31.8C226.159 28.216 227.257 25.3787 229.455 23.288C231.673 21.1973 234.671 20.152 238.447 20.152C240.153 20.152 241.807 20.3227 243.407 20.664C245.007 20.984 246.297 21.3893 247.279 21.88L247.343 27.384H247.055C246.5 25.3147 245.551 23.8213 244.207 22.904C242.863 21.9653 241.263 21.496 239.407 21.496C236.825 21.496 234.841 22.424 233.455 24.28C232.068 26.1147 231.375 28.6427 231.375 31.864C231.375 35.064 232.004 37.5707 233.263 39.384C234.543 41.1973 236.345 42.104 238.671 42.104C240.356 42.104 241.764 41.624 242.895 40.664C243.449 40.1733 243.855 39.5973 244.111 38.936V34.04C244.111 33.5707 243.961 33.2187 243.663 32.984C243.385 32.728 242.98 32.6 242.447 32.6H241.935V32.28H250.927V32.6ZM281.773 42.68H282.285V43H272.685V42.712H273.165C273.527 42.712 273.837 42.5733 274.093 42.296C274.349 41.9973 274.455 41.6773 274.413 41.336L273.165 29.72L267.149 40.088C266.359 41.4107 265.954 42.5947 265.933 43.64H265.613L257.389 29.816L256.141 41.336C256.098 41.6773 256.205 41.9973 256.461 42.296C256.717 42.5733 257.026 42.712 257.389 42.712H257.869V43H251.181V42.68H251.693C252.29 42.68 252.802 42.4987 253.229 42.136C253.677 41.7733 253.943 41.2827 254.029 40.664L256.685 20.152H256.973L266.893 36.472L276.429 20.152H276.717L279.437 40.664C279.543 41.2827 279.81 41.7733 280.237 42.136C280.685 42.4987 281.197 42.68 281.773 42.68Z" fill="url(#paint0_linear_96_641)"/>
</g>
<defs>
<filter id="filter0_ddi_96_641" x="0.819336" y="0.604004" width="296.965" height="65.56" filterUnits="userSpaceOnUse" color-interpolation-filters="sRGB">
<feFlood flood-opacity="0" result="BackgroundImageFix"/>
<feColorMatrix in="SourceAlpha" type="matrix" values="0 0 0 0 0 0 0 0 0 0 0 0 0 0 0 0 0 0 127 0" result="hardAlpha"/>
<feOffset dy="2"/>
<feGaussianBlur stdDeviation="7.75"/>
<feComposite in2="hardAlpha" operator="out"/>
<feColorMatrix type="matrix" values="0 0 0 0 0.6 0 0 0 0 0.856 0 0 0 0 1 0 0 0 0.62 0"/>
<feBlend mode="normal" in2="BackgroundImageFix" result="effect1_dropShadow_96_641"/>
<feColorMatrix in="SourceAlpha" type="matrix" values="0 0 0 0 0 0 0 0 0 0 0 0 0 0 0 0 0 0 127 0" result="hardAlpha"/>
<feOffset dy="2"/>
<feGaussianBlur stdDeviation="1"/>
<feComposite in2="hardAlpha" operator="out"/>
<feColorMatrix type="matrix" values="0 0 0 0 0 0 0 0 0 0 0 0 0 0 0 0 0 0 0.25 0"/>
<feBlend mode="normal" in2="effect1_dropShadow_96_641" result="effect2_dropShadow_96_641"/>
<feBlend mode="normal" in="SourceGraphic" in2="effect2_dropShadow_96_641" result="shape"/>
<feColorMatrix in="SourceAlpha" type="matrix" values="0 0 0 0 0 0 0 0 0 0 0 0 0 0 0 0 0 0 127 0" result="hardAlpha"/>
<feOffset dy="2"/>
<feGaussianBlur stdDeviation="1"/>
<feComposite in2="hardAlpha" operator="arithmetic" k2="-1" k3="1"/>
<feColorMatrix type="matrix" values="0 0 0 0 0.85 0 0 0 0 0.216042 0 0 0 0 0.562792 0 0 0 0.3 0"/>
<feBlend mode="normal" in2="shape" result="effect3_innerShadow_96_641"/>
</filter>
<linearGradient id="paint0_linear_96_641" x1="148.743" y1="33.5" x2="148.986" y2="55.0002" gradientUnits="userSpaceOnUse">
<stop offset="0.21875" stop-color="#E4BC53"/>
<stop offset="1" stop-color="#727898"/>
</linearGradient>
</defs>
</svg>
