<svg width="583" height="127" viewBox="0 0 583 127" fill="none" xmlns="http://www.w3.org/2000/svg">
<g filter="url(#filter0_ddi_53_1104)">
<path d="M95.2928 87.712C90.6421 90.0587 85.9274 90.4427 81.1488 88.864C76.0714 87.2427 71.6981 83.7867 68.0288 78.496C66.0661 75.68 64.3808 72.416 62.9728 68.704L60.9248 63.264H45.8208L42.4288 71.328C42.2154 71.8827 42.1088 72.3307 42.1088 72.672C42.1088 73.0133 42.1728 73.3973 42.3008 73.824C42.4714 74.208 42.7914 74.5707 43.2608 74.912C43.7728 75.2107 44.3274 75.36 44.9248 75.36H45.4368V76H31.7407V75.36H32.3167C33.2981 75.36 34.2581 75.0827 35.1968 74.528C36.1781 73.9307 36.9888 73.056 37.6288 71.904L51.9008 39.328C50.2368 35.5733 48.4661 32.992 46.5888 31.584C45.0101 30.3893 43.4954 29.792 42.0448 29.792C40.6368 29.792 39.3141 30.0053 38.0768 30.432L37.9488 29.792C41.0208 28.2133 43.9648 27.424 46.7808 27.424C50.2794 27.424 53.4154 28.7893 56.1888 31.52C58.9194 34.208 61.3301 38.0907 63.4208 43.168L72.7008 66.08C76.1994 74.7413 79.7834 80.6933 83.4528 83.936C84.9461 85.2587 86.4821 86.176 88.0608 86.688C89.6394 87.2 90.9621 87.456 92.0288 87.456C93.1381 87.456 94.2048 87.328 95.2288 87.072L95.2928 87.712ZM46.9088 60.512H59.9648L55.4848 48.672C55.2714 48.0747 54.9728 47.264 54.5888 46.24C54.2048 45.1733 53.9488 44.4267 53.8208 44L46.9088 60.512ZM101.57 76H81.2818V75.36H82.1138C83.2231 75.36 84.1618 74.976 84.9298 74.208C85.7404 73.44 86.1671 72.5013 86.2098 71.392V35.808C86.1671 34.6987 85.7404 33.76 84.9298 32.992C84.1618 32.224 83.2231 31.84 82.1138 31.84H81.2818V31.2H99.8418C104.791 31.2 108.716 32.096 111.618 33.888C114.562 35.68 116.055 38.432 116.098 42.144C116.055 44.0213 115.65 45.664 114.882 47.072C113.474 49.7173 111.255 51.232 108.226 51.616C111.511 51.9147 114.22 53.152 116.354 55.328C118.487 57.4613 119.554 60.192 119.554 63.52C119.554 67.5307 117.932 70.624 114.69 72.8C111.49 74.9333 107.116 76 101.57 76ZM105.858 42.976C105.815 36.96 103.084 33.952 97.6658 33.952H95.8098V73.056H98.7538C98.7964 73.056 98.8391 73.056 98.8818 73.056C101.826 73.056 104.172 72.2027 105.922 70.496C107.671 68.7893 108.546 66.208 108.546 62.752C108.546 60.32 108.055 58.3147 107.074 56.736C105.239 53.792 102.21 52.32 97.9858 52.32V51.744C100.204 51.744 102.06 51.04 103.554 49.632C105.047 48.1813 105.815 45.9627 105.858 42.976ZM150.504 30.304C158.397 30.304 164.669 32.3947 169.32 36.576C173.97 40.7573 176.296 46.432 176.296 53.6C176.296 60.768 173.97 66.4427 169.32 70.624C164.669 74.8053 158.397 76.896 150.504 76.896C142.61 76.896 136.338 74.8053 131.688 70.624C127.037 66.4427 124.712 60.768 124.712 53.6C124.712 48.864 125.757 44.7467 127.848 41.248C129.981 37.7067 132.989 34.9973 136.872 33.12C140.754 31.2427 145.298 30.304 150.504 30.304ZM139.304 68.704C142.077 72.3733 145.81 74.208 150.504 74.208C155.197 74.208 158.909 72.3733 161.64 68.704C164.413 64.992 165.8 59.9573 165.8 53.6C165.8 49.4187 165.181 45.7707 163.944 42.656C162.706 39.5413 160.936 37.152 158.632 35.488C156.328 33.824 153.618 32.992 150.504 32.992C145.81 32.992 142.077 34.848 139.304 38.56C136.573 42.2293 135.208 47.2427 135.208 53.6C135.208 59.9573 136.573 64.992 139.304 68.704ZM228.216 31.84H227.128C226.232 31.84 225.443 32.1387 224.76 32.736C224.12 33.2907 223.8 33.9947 223.8 34.848V59.808C223.8 65.056 222.158 69.216 218.872 72.288C215.587 75.36 211.086 76.896 205.368 76.896C198.627 76.896 193.464 75.4027 189.88 72.416C186.296 69.3867 184.504 65.2053 184.504 59.872V35.04C184.504 34.1013 184.163 33.3333 183.48 32.736C182.84 32.1387 182.051 31.84 181.112 31.84H180.088V31.2H198.52V31.84H197.496C196.558 31.84 195.768 32.1387 195.128 32.736C194.488 33.2907 194.147 34.016 194.104 34.912V59.36C194.104 63.8827 195.214 67.4667 197.432 70.112C199.651 72.7573 202.702 74.08 206.584 74.08C210.467 74.08 213.539 72.8427 215.8 70.368C218.062 67.8507 219.214 64.4587 219.256 60.192V34.912C219.256 34.016 218.915 33.2907 218.232 32.736C217.592 32.1387 216.803 31.84 215.864 31.84H214.84V31.2H228.216V31.84ZM256.395 33.824V71.392C256.437 72.5013 256.843 73.44 257.611 74.208C258.421 74.976 259.381 75.36 260.491 75.36H261.259L261.323 76H241.867V75.36H242.699C243.765 75.36 244.683 74.976 245.451 74.208C246.261 73.44 246.709 72.5227 246.795 71.456V33.824H238.155C236.192 33.8667 234.635 34.4853 233.483 35.68C232.331 36.8747 231.755 38.432 231.755 40.352V41.12H231.115V29.984C231.712 30.24 232.779 30.496 234.315 30.752C235.893 31.008 237.344 31.136 238.667 31.136H264.459C266.549 31.0933 268.256 30.9227 269.579 30.624C270.901 30.3253 271.712 30.112 272.011 29.984V41.12H271.371V40.352C271.371 38.432 270.795 36.8747 269.643 35.68C268.491 34.4853 266.933 33.8667 264.971 33.824H256.395ZM327.82 49.568C326.369 52.896 323.681 55.2 319.756 56.48C318.604 56.864 317.537 57.056 316.556 57.056C313.526 57.056 310.817 56.2667 308.428 54.688V54.048C311.628 54.1333 314.209 53.088 316.172 50.912C317.921 49.0347 318.796 46.5813 318.796 43.552C318.796 38.9013 317.174 35.8933 313.932 34.528C312.908 34.1013 311.777 33.888 310.54 33.888H306.252V71.328C306.252 72.4373 306.657 73.3973 307.468 74.208C308.278 74.976 309.238 75.36 310.348 75.36H311.18V76H291.724V75.36H292.556C293.665 75.36 294.604 74.976 295.372 74.208C296.182 73.3973 296.609 72.4373 296.652 71.328V35.552C296.481 34.1013 295.756 33.0347 294.476 32.352C293.878 32.0107 293.238 31.84 292.556 31.84H291.724V31.2H313.1C320.822 31.2 325.772 33.6533 327.948 38.56C328.63 40.1813 328.972 41.9947 328.972 44C328.972 45.9627 328.588 47.8187 327.82 49.568ZM334.176 75.36C335.286 75.36 336.224 74.976 336.992 74.208C337.803 73.3973 338.23 72.4373 338.272 71.328V35.68C338.144 34.1867 337.44 33.0773 336.16 32.352C335.52 32.0107 334.859 31.84 334.176 31.84H333.344V31.2H357.856C359.179 31.2 360.63 31.072 362.208 30.816C363.787 30.56 364.896 30.304 365.536 30.048V41.248H364.896V40.48C364.896 38.56 364.32 37.024 363.168 35.872C362.059 34.6773 360.544 34.0373 358.624 33.952H347.872V52.576H356.32C357.899 52.5333 359.2 52 360.224 50.976C361.248 49.9093 361.76 48.608 361.76 47.072V46.496H362.4V61.28H361.76V60.768C361.76 58.6347 360.907 57.056 359.2 56.032C358.347 55.5627 357.408 55.3067 356.384 55.264H347.872V73.248H356.256C359.371 73.248 361.974 72.352 364.064 70.56C366.198 68.768 367.776 66.2293 368.8 62.944H369.44L366.496 76H333.344V75.36H334.176ZM431.639 75.36H432.663V76H413.463V75.424H414.423C415.149 75.424 415.767 75.1467 416.279 74.592C416.791 73.9947 417.005 73.3547 416.919 72.672L414.423 49.44L402.391 70.176C400.813 72.8213 400.002 75.1893 399.959 77.28H399.319L382.871 49.632L380.375 72.672C380.29 73.3547 380.503 73.9947 381.015 74.592C381.527 75.1467 382.146 75.424 382.871 75.424H383.831V76H370.455V75.36H371.479C372.674 75.36 373.698 74.9973 374.551 74.272C375.447 73.5467 375.981 72.5653 376.151 71.328L381.463 30.304H382.039L401.879 62.944L420.951 30.304H421.527L426.967 71.328C427.181 72.5653 427.714 73.5467 428.567 74.272C429.463 74.9973 430.487 75.36 431.639 75.36ZM435.551 75.36C436.661 75.36 437.599 74.976 438.367 74.208C439.178 73.3973 439.605 72.4373 439.647 71.328V35.808C439.605 34.6987 439.178 33.76 438.367 32.992C437.599 32.224 436.661 31.84 435.551 31.84H434.719V31.2H454.175L454.111 31.84H453.343C452.234 31.84 451.274 32.224 450.463 32.992C449.653 33.76 449.247 34.6987 449.247 35.808V71.328C449.247 72.4373 449.653 73.3973 450.463 74.208C451.274 74.976 452.234 75.36 453.343 75.36H454.111L454.175 76H434.719V75.36H435.551ZM477.071 34.016H474.319C474.233 34.016 474.169 34.016 474.127 34.016V71.328C474.169 72.9067 474.852 74.08 476.175 74.848C476.815 75.1893 477.497 75.36 478.223 75.36H479.055V76H459.599V75.36H460.431C461.967 75.36 463.14 74.6987 463.951 73.376C464.292 72.7787 464.484 72.1173 464.527 71.392V35.872C464.484 34.7627 464.057 33.824 463.247 33.056C462.479 32.2453 461.54 31.84 460.431 31.84H459.599V31.2H481.551C485.689 31.2 489.188 32.096 492.047 33.888C493.497 34.784 494.649 36.0427 495.503 37.664C496.356 39.2427 496.783 41.056 496.783 43.104C496.783 45.1093 496.42 46.9653 495.695 48.672C495.012 50.3787 493.839 51.872 492.175 53.152C490.553 54.432 488.591 55.2 486.287 55.456C488.761 56.2667 490.937 58.144 492.815 61.088C497.423 68.4693 500.836 72.864 503.055 74.272C504.164 74.9547 505.551 75.3173 507.215 75.36V76H500.943C497.316 76 494.287 75.5093 491.855 74.528C489.423 73.504 487.439 71.776 485.903 69.344C485.135 68.1067 484.153 66.2507 482.959 63.776C481.764 61.2587 480.975 59.4667 480.591 58.4C479.439 55.84 477.988 54.4107 476.239 54.112V53.472H478.223C480.143 53.472 481.828 52.896 483.279 51.744C484.772 50.592 485.775 48.7147 486.287 46.112C486.457 45.216 486.543 44.512 486.543 44C486.543 40.5013 485.839 37.984 484.431 36.448C483.023 34.8693 481.209 34.0587 478.991 34.016C478.564 34.016 477.924 34.016 477.071 34.016ZM550.951 75.36H551.527V76H531.111V75.36H531.687C532.625 75.36 533.308 75.0827 533.735 74.528C534.204 73.9307 534.439 73.376 534.439 72.864C534.439 72.352 534.332 71.84 534.119 71.328L530.983 63.456H516.007L512.679 71.328C512.465 71.8827 512.359 72.416 512.359 72.928C512.359 73.3973 512.572 73.9307 512.999 74.528C513.468 75.0827 514.193 75.36 515.175 75.36H515.687V76H501.991V75.36H502.567C503.548 75.36 504.529 75.0613 505.511 74.464C506.492 73.8667 507.303 72.9707 507.943 71.776L522.727 38.304C524.732 34.08 525.799 31.2853 525.927 29.92H526.503L545.511 71.648C546.151 72.8853 546.961 73.824 547.943 74.464C548.924 75.0613 549.927 75.36 550.951 75.36ZM517.095 60.768H529.895L523.687 45.024L517.095 60.768Z" fill="url(#paint0_linear_53_1104)"/>
</g>
<defs>
<filter id="filter0_ddi_53_1104" x="0.740723" y="0.424072" width="581.786" height="125.808" filterUnits="userSpaceOnUse" color-interpolation-filters="sRGB">
<feFlood flood-opacity="0" result="BackgroundImageFix"/>
<feColorMatrix in="SourceAlpha" type="matrix" values="0 0 0 0 0 0 0 0 0 0 0 0 0 0 0 0 0 0 127 0" result="hardAlpha"/>
<feOffset dy="4"/>
<feGaussianBlur stdDeviation="15.5"/>
<feComposite in2="hardAlpha" operator="out"/>
<feColorMatrix type="matrix" values="0 0 0 0 0.6 0 0 0 0 0.856 0 0 0 0 1 0 0 0 0.62 0"/>
<feBlend mode="normal" in2="BackgroundImageFix" result="effect1_dropShadow_53_1104"/>
<feColorMatrix in="SourceAlpha" type="matrix" values="0 0 0 0 0 0 0 0 0 0 0 0 0 0 0 0 0 0 127 0" result="hardAlpha"/>
<feOffset dy="4"/>
<feGaussianBlur stdDeviation="2"/>
<feComposite in2="hardAlpha" operator="out"/>
<feColorMatrix type="matrix" values="0 0 0 0 0 0 0 0 0 0 0 0 0 0 0 0 0 0 0.25 0"/>
<feBlend mode="normal" in2="effect1_dropShadow_53_1104" result="effect2_dropShadow_53_1104"/>
<feBlend mode="normal" in="SourceGraphic" in2="effect2_dropShadow_53_1104" result="shape"/>
<feColorMatrix in="SourceAlpha" type="matrix" values="0 0 0 0 0 0 0 0 0 0 0 0 0 0 0 0 0 0 127 0" result="hardAlpha"/>
<feOffset dy="4"/>
<feGaussianBlur stdDeviation="2"/>
<feComposite in2="hardAlpha" operator="arithmetic" k2="-1" k3="1"/>
<feColorMatrix type="matrix" values="0 0 0 0 0.85 0 0 0 0 0.216042 0 0 0 0 0.562792 0 0 0 0.3 0"/>
<feBlend mode="normal" in2="shape" result="effect3_innerShadow_53_1104"/>
</filter>
<linearGradient id="paint0_linear_53_1104" x1="291" y1="57" x2="291.5" y2="100" gradientUnits="userSpaceOnUse">
<stop stop-color="#FFC5B4"/>
<stop offset="1" stop-color="#F49071"/>
</linearGradient>
</defs>
</svg>
