<svg width="232" height="55" viewBox="0 0 232 55" fill="none" xmlns="http://www.w3.org/2000/svg">
<g filter="url(#filter0_ddi_96_564)">
<path d="M40.856 24.488C40.92 25.128 40.952 25.9387 40.952 26.92C40.952 27.88 40.76 29.064 40.376 30.472C39.992 31.8587 39.2987 33.0853 38.296 34.152C36.248 36.3493 33.432 37.448 29.848 37.448C25.496 37.448 22.0613 36.3813 19.544 34.248C17.0267 32.0933 15.768 29.288 15.768 25.832C15.768 22.3547 17.0373 19.5387 19.576 17.384C22.136 15.2293 25.5067 14.152 29.688 14.152C31.288 14.152 32.8133 14.312 34.264 14.632C35.7147 14.952 36.92 15.368 37.88 15.88L37.944 21.384H37.688C37.3253 20.0187 36.7173 18.8773 35.864 17.96C34.328 16.3173 32.2587 15.496 29.656 15.496C27.0533 15.496 24.952 16.424 23.352 18.28C21.7733 20.136 20.984 22.6 20.984 25.672C20.984 28.7227 21.8053 31.208 23.448 33.128C25.112 35.048 27.3947 36.04 30.296 36.104C33.432 36.104 35.928 35.1013 37.784 33.096C39.64 31.0907 40.568 28.3707 40.568 24.936C40.568 24.7867 40.568 24.6373 40.568 24.488H40.856ZM64.866 36.68H65.154V37H54.946V36.68H55.234C55.7033 36.68 56.0447 36.5413 56.258 36.264C56.4927 35.9653 56.61 35.688 56.61 35.432C56.61 35.176 56.5567 34.92 56.45 34.664L54.882 30.728H47.394L45.73 34.664C45.6233 34.9413 45.57 35.208 45.57 35.464C45.57 35.6987 45.6767 35.9653 45.89 36.264C46.1247 36.5413 46.4873 36.68 46.978 36.68H47.234V37H40.386V36.68H40.674C41.1647 36.68 41.6553 36.5307 42.146 36.232C42.6367 35.9333 43.042 35.4853 43.362 34.888L50.754 18.152C51.7567 16.04 52.29 14.6427 52.354 13.96H52.642L62.146 34.824C62.466 35.4427 62.8713 35.912 63.362 36.232C63.8527 36.5307 64.354 36.68 64.866 36.68ZM47.938 29.384H54.338L51.234 21.512L47.938 29.384ZM90.3003 14.92C89.7669 14.92 89.3083 15.112 88.9243 15.496C88.5403 15.8587 88.3376 16.3067 88.3163 16.84V33.352C88.3163 34.7813 88.4123 35.9867 88.6043 36.968L88.7003 37.448H88.4123L72.2523 22.056V34.76C72.2523 35.2933 72.4443 35.752 72.8283 36.136C73.2123 36.4987 73.6709 36.68 74.2043 36.68H74.8123V37H65.1163V36.68H65.6923C66.2469 36.68 66.7163 36.4987 67.1003 36.136C67.4843 35.752 67.6763 35.2827 67.6763 34.728V18.12C67.6763 16.712 67.5803 15.5387 67.3883 14.6L67.3243 14.12H67.6123L83.7723 29.512V16.872C83.7509 16.3173 83.5483 15.8587 83.1643 15.496C82.7803 15.112 82.3216 14.92 81.7882 14.92H81.2123V14.6H90.9083V14.92H90.3003ZM104.679 14.6C108.455 14.6 111.441 15.6027 113.639 17.608C115.836 19.6133 116.935 22.344 116.935 25.8C116.935 29.256 115.836 31.9867 113.639 33.992C111.441 35.9973 108.455 37 104.679 37H93.0628V36.68H93.4788C94.0334 36.68 94.5028 36.488 94.8868 36.104C95.2921 35.6987 95.5054 35.2187 95.5268 34.664V16.744C95.4628 16.232 95.2388 15.8053 94.8548 15.464C94.4708 15.1013 94.0121 14.92 93.4788 14.92H93.0628V14.6H104.679ZM104.263 35.656C105.799 35.656 107.121 35.2613 108.231 34.472C109.361 33.6613 110.225 32.52 110.823 31.048C111.42 29.5547 111.719 27.8053 111.719 25.8C111.719 22.7707 111.047 20.3707 109.703 18.6C108.38 16.8293 106.567 15.944 104.263 15.944H100.327V35.656H104.263ZM119.354 36.68C119.908 36.68 120.378 36.488 120.762 36.104C121.167 35.6987 121.38 35.2187 121.402 34.664V16.904C121.38 16.3493 121.167 15.88 120.762 15.496C120.378 15.112 119.908 14.92 119.354 14.92H118.938V14.6H128.666L128.634 14.92H128.25C127.695 14.92 127.215 15.112 126.81 15.496C126.404 15.88 126.202 16.3493 126.202 16.904V34.664C126.202 35.2187 126.404 35.6987 126.81 36.104C127.215 36.488 127.695 36.68 128.25 36.68H128.634L128.666 37H118.938V36.68H119.354ZM142.898 14.6C146.674 14.6 149.66 15.6027 151.858 17.608C154.055 19.6133 155.154 22.344 155.154 25.8C155.154 29.256 154.055 31.9867 151.858 33.992C149.66 35.9973 146.674 37 142.898 37H131.282V36.68H131.698C132.252 36.68 132.722 36.488 133.106 36.104C133.511 35.6987 133.724 35.2187 133.746 34.664V16.744C133.682 16.232 133.458 15.8053 133.074 15.464C132.69 15.1013 132.231 14.92 131.698 14.92H131.282V14.6H142.898ZM142.482 35.656C144.018 35.656 145.34 35.2613 146.45 34.472C147.58 33.6613 148.444 32.52 149.042 31.048C149.639 29.5547 149.938 27.8053 149.938 25.8C149.938 22.7707 149.266 20.3707 147.922 18.6C146.599 16.8293 144.786 15.944 142.482 15.944H138.546V35.656H142.482ZM179.022 36.68H179.31V37H169.102V36.68H169.39C169.86 36.68 170.201 36.5413 170.414 36.264C170.649 35.9653 170.766 35.688 170.766 35.432C170.766 35.176 170.713 34.92 170.606 34.664L169.038 30.728H161.55L159.886 34.664C159.78 34.9413 159.726 35.208 159.726 35.464C159.726 35.6987 159.833 35.9653 160.046 36.264C160.281 36.5413 160.644 36.68 161.134 36.68H161.39V37H154.542V36.68H154.83C155.321 36.68 155.812 36.5307 156.302 36.232C156.793 35.9333 157.198 35.4853 157.518 34.888L164.91 18.152C165.913 16.04 166.446 14.6427 166.51 13.96H166.798L176.302 34.824C176.622 35.4427 177.028 35.912 177.518 36.232C178.009 36.5307 178.51 36.68 179.022 36.68ZM162.094 29.384H168.494L165.39 21.512L162.094 29.384ZM188.588 15.912V34.696C188.609 35.2507 188.812 35.72 189.196 36.104C189.601 36.488 190.081 36.68 190.636 36.68H191.02L191.052 37H181.324V36.68H181.74C182.273 36.68 182.732 36.488 183.116 36.104C183.521 35.72 183.745 35.2613 183.788 34.728V15.912H179.468C178.487 15.9333 177.708 16.2427 177.132 16.84C176.556 17.4373 176.268 18.216 176.268 19.176V19.56H175.948V13.992C176.247 14.12 176.78 14.248 177.548 14.376C178.337 14.504 179.063 14.568 179.724 14.568H192.62C193.665 14.5467 194.519 14.4613 195.18 14.312C195.841 14.1627 196.247 14.056 196.396 13.992V19.56H196.076V19.176C196.076 18.216 195.788 17.4373 195.212 16.84C194.636 16.2427 193.857 15.9333 192.876 15.912H188.588ZM198.573 36.68C199.127 36.68 199.597 36.488 199.981 36.104C200.386 35.6987 200.599 35.2187 200.621 34.664V16.84C200.557 16.0933 200.205 15.5387 199.565 15.176C199.245 15.0053 198.914 14.92 198.573 14.92H198.157V14.6H210.413C211.074 14.6 211.799 14.536 212.589 14.408C213.378 14.28 213.933 14.152 214.253 14.024V19.624H213.933V19.24C213.933 18.28 213.645 17.512 213.069 16.936C212.514 16.3387 211.757 16.0187 210.797 15.976H205.421V25.288H209.645C210.434 25.2667 211.085 25 211.597 24.488C212.109 23.9547 212.365 23.304 212.365 22.536V22.248H212.685V29.64H212.365V29.384C212.365 28.3173 211.938 27.528 211.085 27.016C210.658 26.7813 210.189 26.6533 209.677 26.632H205.421V35.624H209.613C211.17 35.624 212.471 35.176 213.517 34.28C214.583 33.384 215.373 32.1147 215.885 30.472H216.205L214.733 37H198.157V36.68H198.573Z" fill="url(#paint0_linear_96_564)"/>
</g>
<defs>
<filter id="filter0_ddi_96_564" x="0.268066" y="0.459961" width="231.437" height="54.488" filterUnits="userSpaceOnUse" color-interpolation-filters="sRGB">
<feFlood flood-opacity="0" result="BackgroundImageFix"/>
<feColorMatrix in="SourceAlpha" type="matrix" values="0 0 0 0 0 0 0 0 0 0 0 0 0 0 0 0 0 0 127 0" result="hardAlpha"/>
<feOffset dy="2"/>
<feGaussianBlur stdDeviation="7.75"/>
<feComposite in2="hardAlpha" operator="out"/>
<feColorMatrix type="matrix" values="0 0 0 0 0.6 0 0 0 0 0.856 0 0 0 0 1 0 0 0 0.62 0"/>
<feBlend mode="normal" in2="BackgroundImageFix" result="effect1_dropShadow_96_564"/>
<feColorMatrix in="SourceAlpha" type="matrix" values="0 0 0 0 0 0 0 0 0 0 0 0 0 0 0 0 0 0 127 0" result="hardAlpha"/>
<feOffset dy="2"/>
<feGaussianBlur stdDeviation="1"/>
<feComposite in2="hardAlpha" operator="out"/>
<feColorMatrix type="matrix" values="0 0 0 0 0 0 0 0 0 0 0 0 0 0 0 0 0 0 0.25 0"/>
<feBlend mode="normal" in2="effect1_dropShadow_96_564" result="effect2_dropShadow_96_564"/>
<feBlend mode="normal" in="SourceGraphic" in2="effect2_dropShadow_96_564" result="shape"/>
<feColorMatrix in="SourceAlpha" type="matrix" values="0 0 0 0 0 0 0 0 0 0 0 0 0 0 0 0 0 0 127 0" result="hardAlpha"/>
<feOffset dy="2"/>
<feGaussianBlur stdDeviation="1"/>
<feComposite in2="hardAlpha" operator="arithmetic" k2="-1" k3="1"/>
<feColorMatrix type="matrix" values="0 0 0 0 0.85 0 0 0 0 0.216042 0 0 0 0 0.562792 0 0 0 0.3 0"/>
<feBlend mode="normal" in2="shape" result="effect3_innerShadow_96_564"/>
</filter>
<linearGradient id="paint0_linear_96_564" x1="115.805" y1="27.5" x2="116.125" y2="48.9981" gradientUnits="userSpaceOnUse">
<stop stop-color="#FFC5B4"/>
<stop offset="1" stop-color="#F49071"/>
</linearGradient>
</defs>
</svg>
