<svg width="24" height="23" viewBox="0 0 24 23" fill="none" xmlns="http://www.w3.org/2000/svg">
<circle cx="12" cy="11.4999" r="11.5" fill="#FFEEE9"/>
<path d="M10.125 10.4H10.75C10.9158 10.4 11.0747 10.3289 11.1919 10.2023C11.3092 10.0757 11.375 9.90402 11.375 9.725C11.375 9.54598 11.3092 9.37429 11.1919 9.2477C11.0747 9.12112 10.9158 9.05 10.75 9.05H10.125C9.95924 9.05 9.80027 9.12112 9.68306 9.2477C9.56585 9.37429 9.5 9.54598 9.5 9.725C9.5 9.90402 9.56585 10.0757 9.68306 10.2023C9.80027 10.3289 9.95924 10.4 10.125 10.4ZM10.125 11.75C9.95924 11.75 9.80027 11.8211 9.68306 11.9477C9.56585 12.0743 9.5 12.246 9.5 12.425C9.5 12.604 9.56585 12.7757 9.68306 12.9023C9.80027 13.0289 9.95924 13.1 10.125 13.1H13.875C14.0408 13.1 14.1997 13.0289 14.3169 12.9023C14.4342 12.7757 14.5 12.604 14.5 12.425C14.5 12.246 14.4342 12.0743 14.3169 11.9477C14.1997 11.8211 14.0408 11.75 13.875 11.75H10.125ZM17 9.6845C16.9935 9.62249 16.9809 9.5614 16.9625 9.50225V9.4415C16.9325 9.3721 16.8924 9.3083 16.8438 9.2525L13.0938 5.2025C13.0421 5.15 12.983 5.1067 12.9188 5.07425C12.9001 5.07139 12.8812 5.07139 12.8625 5.07425C12.799 5.03493 12.7289 5.00968 12.6562 5H8.875C8.37772 5 7.90081 5.21335 7.54917 5.59311C7.19754 5.97287 7 6.48794 7 7.025V16.475C7 17.0121 7.19754 17.5271 7.54917 17.9069C7.90081 18.2867 8.37772 18.5 8.875 18.5H15.125C15.6223 18.5 16.0992 18.2867 16.4508 17.9069C16.8025 17.5271 17 17.0121 17 16.475V9.725C17 9.725 17 9.725 17 9.6845ZM13.25 7.30175L14.8688 9.05H13.875C13.7092 9.05 13.5503 8.97888 13.4331 8.8523C13.3158 8.72571 13.25 8.55402 13.25 8.375V7.30175ZM15.75 16.475C15.75 16.654 15.6842 16.8257 15.5669 16.9523C15.4497 17.0789 15.2908 17.15 15.125 17.15H8.875C8.70924 17.15 8.55027 17.0789 8.43306 16.9523C8.31585 16.8257 8.25 16.654 8.25 16.475V7.025C8.25 6.84598 8.31585 6.67429 8.43306 6.5477C8.55027 6.42112 8.70924 6.35 8.875 6.35H12V8.375C12 8.91206 12.1975 9.42713 12.5492 9.80689C12.9008 10.1867 13.3777 10.4 13.875 10.4H15.75V16.475ZM13.875 14.45H10.125C9.95924 14.45 9.80027 14.5211 9.68306 14.6477C9.56585 14.7743 9.5 14.946 9.5 15.125C9.5 15.304 9.56585 15.4757 9.68306 15.6023C9.80027 15.7289 9.95924 15.8 10.125 15.8H13.875C14.0408 15.8 14.1997 15.7289 14.3169 15.6023C14.4342 15.4757 14.5 15.304 14.5 15.125C14.5 14.946 14.4342 14.7743 14.3169 14.6477C14.1997 14.5211 14.0408 14.45 13.875 14.45Z" fill="#20222D"/>
</svg>
