<svg width="24" height="23" viewBox="0 0 24 23" fill="none" xmlns="http://www.w3.org/2000/svg">
<circle cx="12" cy="11.4999" r="11.5" fill="#FFEEE9"/>
<path d="M9.96424 11.5889L6.60498 8.01161C6.46501 7.85939 6.46501 7.63105 6.60498 7.47882L8.28461 5.65213C8.42458 5.49991 8.63453 5.49991 8.7745 5.65213L12.0638 9.2294" stroke="#20222D" stroke-miterlimit="10"/>
<path d="M14.2333 11.5887L17.5926 15.2421C17.7326 15.3944 17.7326 15.6227 17.5926 15.7749L15.913 17.6016C15.773 17.7538 15.563 17.7538 15.4231 17.6016L12.1338 13.9482" stroke="#20222D" stroke-miterlimit="10"/>
<path d="M14.9731 17.1168L14.2803 16.3633L15.7155 14.8026L16.4083 15.5561L14.9731 17.1168Z" fill="#20222D"/>
<path d="M13.5337 15.5179L12.8409 14.7645L13.5832 13.9572L14.276 14.7107L13.5337 15.5179Z" fill="#20222D"/>
<path d="M9.24805 10.8026L8.55525 10.0491L9.99038 8.48839L10.6832 9.24188L9.24805 10.8026Z" fill="#20222D"/>
<path d="M7.80762 9.31262L7.11482 8.55914L7.85713 7.75186L8.54993 8.50534L7.80762 9.31262Z" fill="#20222D"/>
<path d="M14.9331 6.18489L15.353 5.72821C15.633 5.42377 16.0529 5.42377 16.3328 5.72821L17.5225 7.02212C17.8025 7.32657 17.8025 7.78324 17.5225 8.08769L17.1026 8.54437" stroke="#20222D" stroke-miterlimit="10" stroke-linecap="round" stroke-linejoin="round"/>
<path d="M14.3853 6.8595L16.5131 9.17377L9.83234 16.4393L7.70445 14.125L14.3853 6.8595Z" stroke="#20222D" stroke-miterlimit="10" stroke-linecap="round" stroke-linejoin="round"/>
<path d="M8.22827 15.0463L15.0573 7.61905L15.7501 8.37251L8.9211 15.7997L8.22827 15.0463Z" fill="#20222D"/>
<path d="M6.60498 17.6016L7.65475 14.1005L9.82427 16.4599L6.60498 17.6016Z" stroke="#20222D" stroke-miterlimit="10" stroke-linecap="round" stroke-linejoin="round"/>
<path d="M6.9549 16.4598L6.60498 17.6015L7.65475 17.221L6.9549 16.4598Z" fill="#20222D"/>
<path d="M17.2426 8.39207L16.4028 9.2293L14.3032 6.94594L15.0731 6.03259" stroke="#20222D" stroke-miterlimit="10" stroke-linecap="round" stroke-linejoin="round"/>
</svg>
