<svg width="182" height="63" viewBox="0 0 182 63" fill="none" xmlns="http://www.w3.org/2000/svg">
<g filter="url(#filter0_ddi_96_598)">
<path d="M16.2874 14.488C17.5034 13.976 18.5594 13.72 19.4554 13.72C20.3514 13.72 21.1407 13.8053 21.8234 13.976C22.506 14.1467 23.1994 14.4347 23.9034 14.84C24.6287 15.224 25.3007 15.704 25.9194 16.28C27.114 17.4107 28.1274 18.6907 28.9594 20.12L35.3594 32.12L44.6394 16.152H44.9274L48.2554 34.968C48.7674 37.8693 49.6527 40.1733 50.9114 41.88C52.17 43.608 53.898 44.472 56.0954 44.472C56.2447 44.472 56.3834 44.472 56.5114 44.472V44.792C55.338 45.112 54.186 45.272 53.0554 45.272C50.7514 45.272 48.65 44.3653 46.7514 42.552C44.9167 40.824 43.6687 38.296 43.0074 34.968L41.4394 25.656L35.4234 36.088C34.6127 37.432 34.1967 38.616 34.1754 39.64H33.8874L25.9194 24.536L24.3514 37.336C24.2874 37.8267 24.5007 38.2213 24.9914 38.52C25.1834 38.648 25.386 38.712 25.5994 38.712H26.1114V39H19.4234V38.68H19.9354C20.49 38.68 20.9807 38.52 21.4074 38.2C21.8554 37.8587 22.1327 37.4 22.2394 36.824L24.4154 21.56C23.4554 19.8533 22.3567 18.3387 21.1194 17.016C19.7327 15.5227 18.282 14.776 16.7674 14.776C16.618 14.776 16.4794 14.7867 16.3514 14.808L16.2874 14.488ZM52.0881 38.68C52.6428 38.68 53.1121 38.488 53.4961 38.104C53.9015 37.6987 54.1148 37.2187 54.1361 36.664V18.904C54.1148 18.3493 53.9015 17.88 53.4961 17.496C53.1121 17.112 52.6428 16.92 52.0881 16.92H51.6721V16.6H61.4001L61.3681 16.92H60.9841C60.4295 16.92 59.9495 17.112 59.5441 17.496C59.1388 17.88 58.9361 18.3493 58.9361 18.904V36.664C58.9361 37.2187 59.1388 37.6987 59.5441 38.104C59.9495 38.488 60.4295 38.68 60.9841 38.68H61.3681L61.4001 39H51.6721V38.68H52.0881ZM64.2719 36.024C64.2719 34.488 64.6025 33.176 65.2639 32.088H65.5519C65.5305 32.2587 65.5199 32.4293 65.5199 32.6C65.5199 34.072 66.0425 35.3627 67.0879 36.472C68.1545 37.56 69.6052 38.104 71.4399 38.104C72.8692 38.104 73.9785 37.7627 74.7679 37.08C75.5785 36.3973 75.9839 35.5333 75.9839 34.488C75.9839 33.2293 75.1305 32.1307 73.4239 31.192L67.8559 27.512C66.7465 26.872 65.9465 26.104 65.4559 25.208C64.9865 24.2907 64.7519 23.3627 64.7519 22.424C64.7519 20.4187 65.3812 18.872 66.6399 17.784C67.9199 16.696 69.5519 16.152 71.5359 16.152C72.7092 16.152 74.1599 16.2587 75.8879 16.472H77.9039L77.4879 21.176H77.1679C77.1679 20.0667 76.7519 19.1813 75.9199 18.52C75.1092 17.8373 74.0212 17.496 72.6559 17.496C70.9919 17.496 69.7865 18.008 69.0399 19.032C68.6559 19.5227 68.4639 20.0773 68.4639 20.696C68.4639 21.72 69.2105 22.6693 70.7039 23.544L76.8159 27.512C78.7359 28.6213 79.6959 30.2533 79.6959 32.408C79.6959 34.6907 78.9172 36.44 77.3599 37.656C75.8239 38.8507 73.7759 39.448 71.2159 39.448C69.7652 39.448 68.4212 39.2773 67.1839 38.936C65.9679 38.5733 65.0719 38.0933 64.4959 37.496C64.3465 37.0907 64.2719 36.6 64.2719 36.024ZM82.7719 36.024C82.7719 34.488 83.1025 33.176 83.7639 32.088H84.0519C84.0305 32.2587 84.0199 32.4293 84.0199 32.6C84.0199 34.072 84.5425 35.3627 85.5879 36.472C86.6545 37.56 88.1052 38.104 89.9399 38.104C91.3692 38.104 92.4785 37.7627 93.2679 37.08C94.0785 36.3973 94.4839 35.5333 94.4839 34.488C94.4839 33.2293 93.6305 32.1307 91.9239 31.192L86.3559 27.512C85.2465 26.872 84.4465 26.104 83.9559 25.208C83.4865 24.2907 83.2519 23.3627 83.2519 22.424C83.2519 20.4187 83.8812 18.872 85.1399 17.784C86.4199 16.696 88.0519 16.152 90.0359 16.152C91.2092 16.152 92.6599 16.2587 94.3879 16.472H96.4039L95.9879 21.176H95.6679C95.6679 20.0667 95.2519 19.1813 94.4199 18.52C93.6092 17.8373 92.5212 17.496 91.1559 17.496C89.4919 17.496 88.2865 18.008 87.5399 19.032C87.1559 19.5227 86.9639 20.0773 86.9639 20.696C86.9639 21.72 87.7105 22.6693 89.2039 23.544L95.3159 27.512C97.2359 28.6213 98.1959 30.2533 98.1959 32.408C98.1959 34.6907 97.4172 36.44 95.8599 37.656C94.3239 38.8507 92.2759 39.448 89.7159 39.448C88.2652 39.448 86.9212 39.2773 85.6839 38.936C84.4679 38.5733 83.5719 38.0933 82.9959 37.496C82.8465 37.0907 82.7719 36.6 82.7719 36.024ZM101.244 38.68C101.799 38.68 102.268 38.488 102.652 38.104C103.058 37.6987 103.271 37.2187 103.292 36.664V18.904C103.271 18.3493 103.058 17.88 102.652 17.496C102.268 17.112 101.799 16.92 101.244 16.92H100.828V16.6H110.556L110.524 16.92H110.14C109.586 16.92 109.106 17.112 108.7 17.496C108.295 17.88 108.092 18.3493 108.092 18.904V36.664C108.092 37.2187 108.295 37.6987 108.7 38.104C109.106 38.488 109.586 38.68 110.14 38.68H110.524L110.556 39H100.828V38.68H101.244ZM125.189 16.152C129.136 16.152 132.272 17.1973 134.597 19.288C136.923 21.3787 138.085 24.216 138.085 27.8C138.085 31.384 136.923 34.2213 134.597 36.312C132.272 38.4027 129.136 39.448 125.189 39.448C121.243 39.448 118.107 38.4027 115.781 36.312C113.456 34.2213 112.293 31.384 112.293 27.8C112.293 25.432 112.816 23.3733 113.861 21.624C114.928 19.8533 116.432 18.4987 118.373 17.56C120.315 16.6213 122.587 16.152 125.189 16.152ZM119.589 35.352C120.976 37.1867 122.843 38.104 125.189 38.104C127.536 38.104 129.392 37.1867 130.757 35.352C132.144 33.496 132.837 30.9787 132.837 27.8C132.837 25.7093 132.528 23.8853 131.909 22.328C131.291 20.7707 130.405 19.576 129.253 18.744C128.101 17.912 126.747 17.496 125.189 17.496C122.843 17.496 120.976 18.424 119.589 20.28C118.224 22.1147 117.541 24.6213 117.541 27.8C117.541 30.9787 118.224 33.496 119.589 35.352ZM165.097 16.92C164.564 16.92 164.105 17.112 163.721 17.496C163.337 17.8587 163.134 18.3067 163.113 18.84V35.352C163.113 36.7813 163.209 37.9867 163.401 38.968L163.497 39.448H163.209L147.049 24.056V36.76C147.049 37.2933 147.241 37.752 147.625 38.136C148.009 38.4987 148.468 38.68 149.001 38.68H149.609V39H139.913V38.68H140.489C141.044 38.68 141.513 38.4987 141.897 38.136C142.281 37.752 142.473 37.2827 142.473 36.728V20.12C142.473 18.712 142.377 17.5387 142.185 16.6L142.121 16.12H142.409L158.569 31.512V18.872C158.548 18.3173 158.345 17.8587 157.961 17.496C157.577 17.112 157.118 16.92 156.585 16.92H156.009V16.6H165.705V16.92H165.097Z" fill="url(#paint0_linear_96_598)"/>
</g>
<defs>
<filter id="filter0_ddi_96_598" x="0.787354" y="0.219971" width="180.418" height="62.552" filterUnits="userSpaceOnUse" color-interpolation-filters="sRGB">
<feFlood flood-opacity="0" result="BackgroundImageFix"/>
<feColorMatrix in="SourceAlpha" type="matrix" values="0 0 0 0 0 0 0 0 0 0 0 0 0 0 0 0 0 0 127 0" result="hardAlpha"/>
<feOffset dy="2"/>
<feGaussianBlur stdDeviation="7.75"/>
<feComposite in2="hardAlpha" operator="out"/>
<feColorMatrix type="matrix" values="0 0 0 0 0.6 0 0 0 0 0.856 0 0 0 0 1 0 0 0 0.62 0"/>
<feBlend mode="normal" in2="BackgroundImageFix" result="effect1_dropShadow_96_598"/>
<feColorMatrix in="SourceAlpha" type="matrix" values="0 0 0 0 0 0 0 0 0 0 0 0 0 0 0 0 0 0 127 0" result="hardAlpha"/>
<feOffset dy="2"/>
<feGaussianBlur stdDeviation="1"/>
<feComposite in2="hardAlpha" operator="out"/>
<feColorMatrix type="matrix" values="0 0 0 0 0 0 0 0 0 0 0 0 0 0 0 0 0 0 0.25 0"/>
<feBlend mode="normal" in2="effect1_dropShadow_96_598" result="effect2_dropShadow_96_598"/>
<feBlend mode="normal" in="SourceGraphic" in2="effect2_dropShadow_96_598" result="shape"/>
<feColorMatrix in="SourceAlpha" type="matrix" values="0 0 0 0 0 0 0 0 0 0 0 0 0 0 0 0 0 0 127 0" result="hardAlpha"/>
<feOffset dy="2"/>
<feGaussianBlur stdDeviation="1"/>
<feComposite in2="hardAlpha" operator="arithmetic" k2="-1" k3="1"/>
<feColorMatrix type="matrix" values="0 0 0 0 0.85 0 0 0 0 0.216042 0 0 0 0 0.562792 0 0 0 0.3 0"/>
<feBlend mode="normal" in2="shape" result="effect3_innerShadow_96_598"/>
</filter>
<linearGradient id="paint0_linear_96_598" x1="92.8569" y1="29.5" x2="93.2934" y2="50.994" gradientUnits="userSpaceOnUse">
<stop stop-color="#FFC5B4"/>
<stop offset="1" stop-color="#F49071"/>
</linearGradient>
</defs>
</svg>
