<svg width="152" height="63" viewBox="0 0 152 63" fill="none" xmlns="http://www.w3.org/2000/svg">
<g filter="url(#filter0_ddi_96_595)">
<path d="M46.2258 13.664C46.7591 13.664 47.2071 13.6853 47.5698 13.728V14.048C46.2471 14.112 45.1058 14.432 44.1458 15.008C43.0578 15.6693 42.2791 16.288 41.8098 16.864C41.3618 17.4187 40.9991 17.8773 40.7218 18.24C40.4658 18.5813 40.2098 18.9973 39.9538 19.488C39.5484 20.2347 39.1751 20.9707 38.8338 21.696L30.2578 40.448C29.2764 42.56 28.7538 43.9573 28.6898 44.64H28.4018L18.7057 23.744C18.3858 23.1467 17.9804 22.6987 17.4898 22.4C16.9991 22.08 16.4977 21.92 15.9857 21.92H15.7297V21.6H25.9058V21.92H25.6498C25.1804 21.92 24.8284 22.0693 24.5938 22.368C24.3804 22.6453 24.2738 22.912 24.2738 23.168C24.2738 23.424 24.3164 23.68 24.4018 23.936L29.8418 37.152L36.4658 21.696C37.4684 19.328 38.6418 17.5467 39.9858 16.352C41.9698 14.56 44.0498 13.664 46.2258 13.664ZM41.3538 43.68C41.9084 43.68 42.3778 43.488 42.7618 43.104C43.1671 42.6987 43.3804 42.2187 43.4018 41.664V23.904C43.3804 23.3493 43.1671 22.88 42.7618 22.496C42.3778 22.112 41.9084 21.92 41.3538 21.92H40.9378V21.6H50.6658L50.6338 21.92H50.2498C49.6951 21.92 49.2151 22.112 48.8098 22.496C48.4044 22.88 48.2018 23.3493 48.2018 23.904V41.664C48.2018 42.2187 48.4044 42.6987 48.8098 43.104C49.2151 43.488 49.6951 43.68 50.2498 43.68H50.6338L50.6658 44H40.9378V43.68H41.3538ZM53.5375 41.024C53.5375 39.488 53.8682 38.176 54.5295 37.088H54.8175C54.7962 37.2587 54.7855 37.4293 54.7855 37.6C54.7855 39.072 55.3082 40.3627 56.3535 41.472C57.4202 42.56 58.8708 43.104 60.7055 43.104C62.1348 43.104 63.2442 42.7627 64.0335 42.08C64.8442 41.3973 65.2495 40.5333 65.2495 39.488C65.2495 38.2293 64.3962 37.1307 62.6895 36.192L57.1215 32.512C56.0122 31.872 55.2122 31.104 54.7215 30.208C54.2522 29.2907 54.0175 28.3627 54.0175 27.424C54.0175 25.4187 54.6468 23.872 55.9055 22.784C57.1855 21.696 58.8175 21.152 60.8015 21.152C61.9748 21.152 63.4255 21.2587 65.1535 21.472H67.1695L66.7535 26.176H66.4335C66.4335 25.0667 66.0175 24.1813 65.1855 23.52C64.3748 22.8373 63.2868 22.496 61.9215 22.496C60.2575 22.496 59.0522 23.008 58.3055 24.032C57.9215 24.5227 57.7295 25.0773 57.7295 25.696C57.7295 26.72 58.4762 27.6693 59.9695 28.544L66.0815 32.512C68.0015 33.6213 68.9615 35.2533 68.9615 37.408C68.9615 39.6907 68.1828 41.44 66.6255 42.656C65.0895 43.8507 63.0415 44.448 60.4815 44.448C59.0308 44.448 57.6868 44.2773 56.4495 43.936C55.2335 43.5733 54.3375 43.0933 53.7615 42.496C53.6122 42.0907 53.5375 41.6 53.5375 41.024ZM72.01 43.68C72.5647 43.68 73.034 43.488 73.418 43.104C73.8233 42.6987 74.0367 42.2187 74.058 41.664V23.904C74.0367 23.3493 73.8233 22.88 73.418 22.496C73.034 22.112 72.5647 21.92 72.01 21.92H71.594V21.6H81.322L81.29 21.92H80.906C80.3513 21.92 79.8713 22.112 79.466 22.496C79.0607 22.88 78.858 23.3493 78.858 23.904V41.664C78.858 42.2187 79.0607 42.6987 79.466 43.104C79.8713 43.488 80.3513 43.68 80.906 43.68H81.29L81.322 44H71.594V43.68H72.01ZM95.955 21.152C99.9017 21.152 103.038 22.1973 105.363 24.288C107.688 26.3787 108.851 29.216 108.851 32.8C108.851 36.384 107.688 39.2213 105.363 41.312C103.038 43.4027 99.9017 44.448 95.955 44.448C92.0083 44.448 88.8723 43.4027 86.547 41.312C84.2217 39.2213 83.059 36.384 83.059 32.8C83.059 30.432 83.5817 28.3733 84.627 26.624C85.6937 24.8533 87.1977 23.4987 89.139 22.56C91.0803 21.6213 93.3523 21.152 95.955 21.152ZM90.355 40.352C91.7417 42.1867 93.6083 43.104 95.955 43.104C98.3017 43.104 100.158 42.1867 101.523 40.352C102.91 38.496 103.603 35.9787 103.603 32.8C103.603 30.7093 103.294 28.8853 102.675 27.328C102.056 25.7707 101.171 24.576 100.019 23.744C98.867 22.912 97.5123 22.496 95.955 22.496C93.6083 22.496 91.7417 23.424 90.355 25.28C88.9897 27.1147 88.307 29.6213 88.307 32.8C88.307 35.9787 88.9897 38.496 90.355 40.352ZM135.863 21.92C135.329 21.92 134.871 22.112 134.487 22.496C134.103 22.8587 133.9 23.3067 133.879 23.84V40.352C133.879 41.7813 133.975 42.9867 134.167 43.968L134.263 44.448H133.975L117.815 29.056V41.76C117.815 42.2933 118.007 42.752 118.391 43.136C118.775 43.4987 119.233 43.68 119.767 43.68H120.375V44H110.679V43.68H111.255C111.809 43.68 112.279 43.4987 112.663 43.136C113.047 42.752 113.239 42.2827 113.239 41.728V25.12C113.239 23.712 113.143 22.5387 112.951 21.6L112.887 21.12H113.175L129.335 36.512V23.872C129.313 23.3173 129.111 22.8587 128.727 22.496C128.343 22.112 127.884 21.92 127.351 21.92H126.775V21.6H136.471V21.92H135.863Z" fill="url(#paint0_linear_96_595)"/>
</g>
<defs>
<filter id="filter0_ddi_96_595" x="0.229736" y="0.16394" width="151.741" height="61.9761" filterUnits="userSpaceOnUse" color-interpolation-filters="sRGB">
<feFlood flood-opacity="0" result="BackgroundImageFix"/>
<feColorMatrix in="SourceAlpha" type="matrix" values="0 0 0 0 0 0 0 0 0 0 0 0 0 0 0 0 0 0 127 0" result="hardAlpha"/>
<feOffset dy="2"/>
<feGaussianBlur stdDeviation="7.75"/>
<feComposite in2="hardAlpha" operator="out"/>
<feColorMatrix type="matrix" values="0 0 0 0 0.6 0 0 0 0 0.856 0 0 0 0 1 0 0 0 0.62 0"/>
<feBlend mode="normal" in2="BackgroundImageFix" result="effect1_dropShadow_96_595"/>
<feColorMatrix in="SourceAlpha" type="matrix" values="0 0 0 0 0 0 0 0 0 0 0 0 0 0 0 0 0 0 127 0" result="hardAlpha"/>
<feOffset dy="2"/>
<feGaussianBlur stdDeviation="1"/>
<feComposite in2="hardAlpha" operator="out"/>
<feColorMatrix type="matrix" values="0 0 0 0 0 0 0 0 0 0 0 0 0 0 0 0 0 0 0.25 0"/>
<feBlend mode="normal" in2="effect1_dropShadow_96_595" result="effect2_dropShadow_96_595"/>
<feBlend mode="normal" in="SourceGraphic" in2="effect2_dropShadow_96_595" result="shape"/>
<feColorMatrix in="SourceAlpha" type="matrix" values="0 0 0 0 0 0 0 0 0 0 0 0 0 0 0 0 0 0 127 0" result="hardAlpha"/>
<feOffset dy="2"/>
<feGaussianBlur stdDeviation="1"/>
<feComposite in2="hardAlpha" operator="arithmetic" k2="-1" k3="1"/>
<feColorMatrix type="matrix" values="0 0 0 0 0.85 0 0 0 0 0.216042 0 0 0 0 0.562792 0 0 0 0.3 0"/>
<feBlend mode="normal" in2="shape" result="effect3_innerShadow_96_595"/>
</filter>
<linearGradient id="paint0_linear_96_595" x1="76.883" y1="34.5" x2="77.4168" y2="55.9896" gradientUnits="userSpaceOnUse">
<stop stop-color="#FFC5B4"/>
<stop offset="1" stop-color="#F49071"/>
</linearGradient>
</defs>
</svg>
