<svg width="468" height="91" viewBox="0 0 468 91" fill="none" xmlns="http://www.w3.org/2000/svg">
<g filter="url(#filter0_ddi_100_125)">
<path d="M23.5029 57.3447C24.2918 57.3447 24.9593 57.0716 25.5054 56.5255C26.0819 55.949 26.3853 55.2664 26.4156 54.4775V29.1278C26.3246 28.0659 25.824 27.277 24.9138 26.7612C24.4586 26.5185 23.9884 26.3971 23.5029 26.3971H22.9113V25.942H35.6999C37.0349 25.942 38.203 25.8358 39.2042 25.6234C40.2055 25.4111 40.8578 25.2442 41.1612 25.1228V33.0873H40.6606V32.5411C40.6909 31.1758 40.2965 30.0835 39.4773 29.2643C38.6885 28.4148 37.6114 27.9597 36.246 27.899H33.2423V41.1427H40.4786C41.6012 41.1124 42.5266 40.7331 43.2547 40.005C43.9829 39.2464 44.347 38.321 44.347 37.2288V36.8192H44.7566V47.3322H44.347V46.9682C44.347 45.8456 43.9829 44.9202 43.2547 44.192C42.5266 43.4638 41.6163 43.0845 40.5241 43.0542H33.2423V55.8428H42.117C44.3318 55.8428 46.1826 55.2057 47.6693 53.9314C49.1864 52.657 50.309 50.8518 51.0371 48.5155H51.4922L49.3532 57.7998H22.9113V57.3447H23.5029ZM88.6713 26.3971C87.9128 26.3971 87.2604 26.6702 86.7143 27.2163C86.1682 27.7321 85.8799 28.3693 85.8496 29.1278V52.6115C85.8496 54.6444 85.9861 56.3586 86.2592 57.7543L86.3957 58.437H85.9861L63.003 36.5461V54.614C63.003 55.3725 63.2761 56.0249 63.8222 56.571C64.3683 57.0868 65.0207 57.3447 65.7792 57.3447H66.6439V57.7998H52.854V57.3447H53.6732C54.4621 57.3447 55.1296 57.0868 55.6757 56.571C56.2218 56.0249 56.4949 55.3574 56.4949 54.5685V30.9482C56.4949 28.9458 56.3584 27.277 56.0853 25.942L55.9943 25.2594H56.4039L79.387 47.1502V29.1733C79.3567 28.3845 79.0684 27.7321 78.5223 27.2163C77.9762 26.6702 77.3238 26.3971 76.5653 26.3971H75.7461V25.942H89.536V26.3971H88.6713ZM109.481 27.808V54.523C109.511 55.3119 109.799 55.9794 110.345 56.5255C110.922 57.0716 111.604 57.3447 112.393 57.3447H112.939L112.985 57.7998H99.1495V57.3447H99.7411C100.5 57.3447 101.152 57.0716 101.698 56.5255C102.275 55.9794 102.593 55.327 102.654 54.5685V27.808H96.5098C95.1142 27.8383 94.0067 28.2783 93.1875 29.1278C92.3683 29.9773 91.9587 31.0848 91.9587 32.4501V32.9962H91.5036V25.0773C91.9284 25.2594 92.6869 25.4414 93.7792 25.6234C94.9018 25.8055 95.9334 25.8965 96.8739 25.8965H115.215C116.702 25.8662 117.915 25.7448 118.856 25.5324C119.796 25.32 120.373 25.1683 120.585 25.0773V32.9962H120.13V32.4501C120.13 31.0848 119.721 29.9773 118.901 29.1278C118.082 28.2783 116.975 27.8383 115.579 27.808H109.481ZM123.681 57.3447C124.47 57.3447 125.137 57.0716 125.683 56.5255C126.26 55.949 126.563 55.2664 126.593 54.4775V29.1278C126.502 28.0659 126.002 27.277 125.092 26.7612C124.636 26.5185 124.166 26.3971 123.681 26.3971H123.089V25.942H140.52C141.46 25.942 142.492 25.851 143.615 25.669C144.737 25.4869 145.526 25.3049 145.981 25.1228V33.0873H145.526V32.5411C145.526 31.1758 145.116 30.0835 144.297 29.2643C143.508 28.4148 142.431 27.9597 141.066 27.899H133.42V41.1427H139.428C140.55 41.1124 141.476 40.7331 142.204 40.005C142.932 39.2464 143.296 38.321 143.296 37.2288V36.8192H143.751V47.3322H143.296V46.9682C143.296 45.4511 142.689 44.3285 141.476 43.6003C140.869 43.2666 140.201 43.0845 139.473 43.0542H133.42V55.8428H139.382C141.597 55.8428 143.448 55.2057 144.934 53.9314C146.451 52.657 147.574 50.8518 148.302 48.5155H148.757L146.664 57.7998H123.089V57.3447H123.681ZM164.183 27.9445H162.226C162.166 27.9445 162.12 27.9445 162.09 27.9445V54.4775C162.12 55.6001 162.606 56.4345 163.546 56.9806C164.001 57.2233 164.487 57.3447 165.003 57.3447H165.594V57.7998H151.759V57.3447H152.351C153.443 57.3447 154.277 56.8744 154.854 55.9338C155.096 55.5091 155.233 55.0388 155.263 54.523V29.2643C155.233 28.4755 154.93 27.808 154.353 27.2618C153.807 26.6854 153.139 26.3971 152.351 26.3971H151.759V25.942H167.369C170.312 25.942 172.8 26.5792 174.833 27.8535C175.865 28.4906 176.684 29.3857 177.291 30.5386C177.897 31.6613 178.201 32.9507 178.201 34.4071C178.201 35.8331 177.943 37.1529 177.427 38.3666C176.942 39.5802 176.107 40.6421 174.924 41.5523C173.771 42.4626 172.375 43.0087 170.737 43.1907C172.497 43.7672 174.044 45.1022 175.379 47.1957C178.656 52.4447 181.083 55.5698 182.661 56.571C183.45 57.0565 184.436 57.3144 185.619 57.3447V57.7998H181.159C178.58 57.7998 176.426 57.4509 174.697 56.753C172.967 56.0249 171.556 54.7961 170.464 53.0666C169.918 52.1868 169.22 50.8669 168.37 49.1072C167.521 47.3171 166.96 46.0428 166.687 45.2842C165.867 43.4638 164.836 42.4474 163.592 42.235V41.7799H165.003C166.368 41.7799 167.566 41.3703 168.598 40.5511C169.66 39.7319 170.373 38.3969 170.737 36.5461C170.858 35.909 170.919 35.4083 170.919 35.0442C170.919 32.5563 170.418 30.7662 169.417 29.6739C168.416 28.5513 167.127 27.9749 165.549 27.9445C165.245 27.9445 164.79 27.9445 164.183 27.9445ZM191.995 23.3024C192.48 23.272 193.254 23.2569 194.316 23.2569C195.348 23.2569 196.713 23.4844 198.412 23.9395C200.141 24.3643 201.734 25.047 203.191 25.9875C204.647 26.9281 205.982 28.0659 207.196 29.4009C209.441 31.8888 211.201 34.8774 212.475 38.3666C214.295 33.1783 216.662 29.2037 219.575 26.4426C221.79 24.3491 224.232 23.3024 226.902 23.3024C227.023 23.3024 227.145 23.3024 227.266 23.3024V23.7575C225.749 23.7878 224.171 24.5919 222.533 26.1696C220.925 27.717 219.514 29.5981 218.3 31.813C217.087 34.0278 216.055 36.3337 215.206 38.7306C214.386 41.1276 213.901 43.2059 213.749 44.9657V54.4775C213.749 55.236 214.022 55.9035 214.569 56.48C215.145 57.0565 215.843 57.3447 216.662 57.3447H217.254V57.7998H203.418V57.3447H204.01C204.799 57.3447 205.466 57.0716 206.012 56.5255C206.589 55.949 206.892 55.2664 206.923 54.4775V44.9202C206.559 41.6434 205.466 38.1693 203.646 34.4981C201.552 30.2504 199.201 27.2315 196.592 25.4414C195.075 24.3795 193.542 23.8182 191.995 23.7575V23.3024ZM242.669 25.3049C248.282 25.3049 252.742 26.7916 256.049 29.765C259.357 32.7384 261.01 36.7737 261.01 41.8709C261.01 46.9682 259.357 51.0035 256.049 53.9769C252.742 56.9503 248.282 58.437 242.669 58.437C237.056 58.437 232.596 56.9503 229.289 53.9769C225.982 51.0035 224.328 46.9682 224.328 41.8709C224.328 38.5031 225.072 35.5752 226.558 33.0873C228.075 30.569 230.214 28.6424 232.975 27.3074C235.736 25.9724 238.968 25.3049 242.669 25.3049ZM234.705 52.6115C236.677 55.2208 239.332 56.5255 242.669 56.5255C246.007 56.5255 248.646 55.2208 250.588 52.6115C252.56 49.9719 253.546 46.3917 253.546 41.8709C253.546 38.8975 253.106 36.3034 252.226 34.0885C251.347 31.8736 250.087 30.1746 248.449 28.9913C246.811 27.808 244.884 27.2163 242.669 27.2163C239.332 27.2163 236.677 28.5362 234.705 31.1758C232.763 33.7851 231.792 37.3501 231.792 41.8709C231.792 46.3917 232.763 49.9719 234.705 52.6115ZM297.931 26.3971H297.158C296.521 26.3971 295.959 26.6095 295.474 27.0343C295.019 27.4287 294.791 27.9293 294.791 28.5362V46.2855C294.791 50.0174 293.623 52.9756 291.287 55.1602C288.951 57.3447 285.75 58.437 281.684 58.437C276.89 58.437 273.219 57.375 270.67 55.2512C268.122 53.097 266.847 50.1236 266.847 46.331V28.6727C266.847 28.0052 266.605 27.4591 266.119 27.0343C265.664 26.6095 265.103 26.3971 264.435 26.3971H263.707V25.942H276.814V26.3971H276.086C275.419 26.3971 274.857 26.6095 274.402 27.0343C273.947 27.4287 273.704 27.9445 273.674 28.5817V45.9669C273.674 49.183 274.463 51.7317 276.041 53.6128C277.618 55.4939 279.788 56.4345 282.549 56.4345C285.31 56.4345 287.494 55.5546 289.102 53.7948C290.71 52.0047 291.529 49.5926 291.56 46.5586V28.5817C291.56 27.9445 291.317 27.4287 290.832 27.0343C290.377 26.6095 289.815 26.3971 289.148 26.3971H288.42V25.942H297.931V26.3971ZM313.428 27.9445H311.471C311.41 27.9445 311.365 27.9445 311.334 27.9445V54.4775C311.365 55.6001 311.85 56.4345 312.791 56.9806C313.246 57.2233 313.731 57.3447 314.247 57.3447H314.839V57.7998H301.003V57.3447H301.595C302.687 57.3447 303.522 56.8744 304.098 55.9338C304.341 55.5091 304.477 55.0388 304.508 54.523V29.2643C304.477 28.4755 304.174 27.808 303.598 27.2618C303.051 26.6854 302.384 26.3971 301.595 26.3971H301.003V25.942H316.614C319.557 25.942 322.045 26.5792 324.078 27.8535C325.109 28.4906 325.928 29.3857 326.535 30.5386C327.142 31.6613 327.445 32.9507 327.445 34.4071C327.445 35.8331 327.187 37.1529 326.672 38.3666C326.186 39.5802 325.352 40.6421 324.169 41.5523C323.016 42.4626 321.62 43.0087 319.982 43.1907C321.741 43.7672 323.289 45.1022 324.624 47.1957C327.9 52.4447 330.328 55.5698 331.905 56.571C332.694 57.0565 333.68 57.3144 334.864 57.3447V57.7998H330.404C327.825 57.7998 325.67 57.4509 323.941 56.753C322.212 56.0249 320.801 54.7961 319.708 53.0666C319.162 52.1868 318.464 50.8669 317.615 49.1072C316.765 47.3171 316.204 46.0428 315.931 45.2842C315.112 43.4638 314.08 42.4474 312.836 42.235V41.7799H314.247C315.612 41.7799 316.811 41.3703 317.842 40.5511C318.904 39.7319 319.617 38.3969 319.982 36.5461C320.103 35.909 320.164 35.4083 320.164 35.0442C320.164 32.5563 319.663 30.7662 318.662 29.6739C317.66 28.5513 316.371 27.9749 314.793 27.9445C314.49 27.9445 314.035 27.9445 313.428 27.9445ZM386.796 62.533C387.312 62.8364 387.888 63.1094 388.526 63.3522C389.163 63.6252 389.769 63.8073 390.346 63.8983C390.953 64.0197 391.605 64.0803 392.303 64.0803C393.031 64.0803 393.774 63.9893 394.533 63.8073L394.715 64.2624C393.016 65.0816 391.302 65.4912 389.572 65.4912C385.598 65.4912 381.547 63.2915 377.421 58.8921L355.849 36V54.614C355.849 55.3725 356.122 56.0249 356.668 56.571C357.214 57.0868 357.866 57.3447 358.625 57.3447H359.489V57.7998H345.7V57.3447H346.519C347.308 57.3447 347.975 57.0868 348.521 56.571C349.067 56.0249 349.34 55.3574 349.34 54.5685V29.0368C347.854 27.3377 346.731 26.1544 345.973 25.4869C345.214 24.7891 344.547 24.2126 343.97 23.7575C343.363 23.3024 342.787 22.9231 342.241 22.6197C340.966 21.8915 339.95 21.4668 339.191 21.3454C338.403 21.224 337.674 21.1634 337.007 21.1634C336.309 21.1634 335.566 21.2999 334.777 21.573L334.595 21.1178C336.264 20.1469 337.978 19.6615 339.738 19.6615C343.561 19.6615 347.611 21.937 351.889 26.4882L372.233 48.1059V29.1733C372.202 28.3845 371.914 27.7321 371.368 27.2163C370.822 26.6702 370.169 26.3971 369.411 26.3971H368.592V25.942H382.381V26.3971H381.517C380.758 26.3971 380.106 26.6702 379.56 27.2163C379.014 27.7321 378.725 28.3693 378.695 29.1278V55.0236L379.423 55.7518C379.605 55.9338 379.878 56.2524 380.242 56.7075C380.637 57.1323 380.986 57.4964 381.289 57.7998C381.593 58.1336 381.972 58.5432 382.427 59.0286C382.912 59.5141 383.352 59.9388 383.747 60.3029C384.172 60.667 384.657 61.0614 385.203 61.4862C385.78 61.911 386.311 62.2599 386.796 62.533ZM386.17 57.3447C386.958 57.3447 387.626 57.0716 388.172 56.5255C388.749 55.949 389.052 55.2664 389.082 54.4775V29.2188C389.052 28.43 388.749 27.7625 388.172 27.2163C387.626 26.6702 386.958 26.3971 386.17 26.3971H385.578V25.942H399.413L399.368 26.3971H398.822C398.033 26.3971 397.35 26.6702 396.774 27.2163C396.197 27.7625 395.909 28.43 395.909 29.2188V54.4775C395.909 55.2664 396.197 55.949 396.774 56.5255C397.35 57.0716 398.033 57.3447 398.822 57.3447H399.368L399.413 57.7998H385.578V57.3447H386.17ZM444.321 57.3447H445.049V57.7998H431.396V57.3902H432.079C432.594 57.3902 433.034 57.193 433.398 56.7986C433.762 56.3738 433.914 55.9187 433.854 55.4332L432.079 38.9127L423.522 53.6583C422.4 55.5394 421.823 57.2233 421.793 58.71H421.338L409.642 39.0492L407.867 55.4332C407.806 55.9187 407.958 56.3738 408.322 56.7986C408.686 57.193 409.126 57.3902 409.642 57.3902H410.324V57.7998H400.812V57.3447H401.541C402.39 57.3447 403.118 57.0868 403.725 56.571C404.362 56.0552 404.742 55.3574 404.863 54.4775L408.64 25.3049H409.05L423.158 48.5155L436.721 25.3049H437.13L440.999 54.4775C441.15 55.3574 441.53 56.0552 442.137 56.571C442.774 57.0868 443.502 57.3447 444.321 57.3447Z" fill="url(#paint0_linear_100_125)"/>
</g>
<defs>
<filter id="filter0_ddi_100_125" x="0.866688" y="0.461621" width="466.227" height="89.9185" filterUnits="userSpaceOnUse" color-interpolation-filters="sRGB">
<feFlood flood-opacity="0" result="BackgroundImageFix"/>
<feColorMatrix in="SourceAlpha" type="matrix" values="0 0 0 0 0 0 0 0 0 0 0 0 0 0 0 0 0 0 127 0" result="hardAlpha"/>
<feOffset dy="2.84444"/>
<feGaussianBlur stdDeviation="11.0222"/>
<feComposite in2="hardAlpha" operator="out"/>
<feColorMatrix type="matrix" values="0 0 0 0 0.6 0 0 0 0 0.856 0 0 0 0 1 0 0 0 0.62 0"/>
<feBlend mode="normal" in2="BackgroundImageFix" result="effect1_dropShadow_100_125"/>
<feColorMatrix in="SourceAlpha" type="matrix" values="0 0 0 0 0 0 0 0 0 0 0 0 0 0 0 0 0 0 127 0" result="hardAlpha"/>
<feOffset dy="2.84444"/>
<feGaussianBlur stdDeviation="1.42222"/>
<feComposite in2="hardAlpha" operator="out"/>
<feColorMatrix type="matrix" values="0 0 0 0 0 0 0 0 0 0 0 0 0 0 0 0 0 0 0.25 0"/>
<feBlend mode="normal" in2="effect1_dropShadow_100_125" result="effect2_dropShadow_100_125"/>
<feBlend mode="normal" in="SourceGraphic" in2="effect2_dropShadow_100_125" result="shape"/>
<feColorMatrix in="SourceAlpha" type="matrix" values="0 0 0 0 0 0 0 0 0 0 0 0 0 0 0 0 0 0 127 0" result="hardAlpha"/>
<feOffset dy="2.84444"/>
<feGaussianBlur stdDeviation="1.42222"/>
<feComposite in2="hardAlpha" operator="arithmetic" k2="-1" k3="1"/>
<feColorMatrix type="matrix" values="0 0 0 0 0.85 0 0 0 0 0.216042 0 0 0 0 0.562792 0 0 0 0.3 0"/>
<feBlend mode="normal" in2="shape" result="effect3_innerShadow_100_125"/>
</filter>
<linearGradient id="paint0_linear_100_125" x1="232.39" y1="44.2998" x2="232.696" y2="74.8008" gradientUnits="userSpaceOnUse">
<stop stop-color="#FFC5B4"/>
<stop offset="1" stop-color="#F49071"/>
</linearGradient>
</defs>
</svg>
