<svg width="679" height="90" viewBox="0 0 679 90" fill="none" xmlns="http://www.w3.org/2000/svg">
<g filter="url(#filter0_ddi_100_154)">
<path d="M58.595 35.9386C58.6861 36.8488 58.7316 38.0017 58.7316 39.3974C58.7316 40.7627 58.4585 42.4466 57.9124 44.4491C57.3662 46.4213 56.3802 48.1659 54.9541 49.6829C52.0414 52.808 48.0365 54.3706 42.9392 54.3706C36.7497 54.3706 31.8648 52.8535 28.2846 49.8194C24.7044 46.755 22.9143 42.7652 22.9143 37.85C22.9143 32.9045 24.7196 28.8995 28.3301 25.8351C31.971 22.7707 36.7649 21.2385 42.7117 21.2385C44.9872 21.2385 47.1566 21.466 49.2197 21.9211C51.2829 22.3762 52.9972 22.9679 54.3625 23.6961L54.4535 31.524H54.0894C53.5736 29.5822 52.7089 27.9589 51.4953 26.6543C49.3108 24.318 46.3677 23.1499 42.6661 23.1499C38.9646 23.1499 35.976 24.4698 33.7005 27.1094C31.4552 29.749 30.3326 33.2534 30.3326 37.6225C30.3326 41.9612 31.5007 45.4959 33.837 48.2266C36.2036 50.9572 39.45 52.3681 43.5764 52.4591C48.0365 52.4591 51.5863 51.0331 54.226 48.181C56.8656 45.329 58.1854 41.4606 58.1854 36.5757C58.1854 36.3633 58.1854 36.1509 58.1854 35.9386H58.595ZM83.2308 53.2783C84.0196 53.2783 84.6264 53.0811 85.0512 52.6866C85.749 51.9888 86.1131 51.2455 86.1435 50.4566V38.8513H71.3979V50.4111C71.3979 51.1999 71.6861 51.8826 72.2626 52.4591C72.8391 53.0052 73.5217 53.2783 74.3106 53.2783H74.8567L74.9022 53.7334H61.0669V53.2783H61.6585C62.4474 53.2783 63.1149 53.0052 63.661 52.4591C64.2375 51.8826 64.5409 51.1999 64.5712 50.4111V25.1524C64.5409 24.3636 64.2375 23.6961 63.661 23.1499C63.1149 22.6038 62.4474 22.3307 61.6585 22.3307H61.0669V21.8756H74.9022L74.8567 22.3307H74.3106C73.5217 22.3307 72.8391 22.6038 72.2626 23.1499C71.6861 23.6961 71.3979 24.3636 71.3979 25.1524V36.8943H86.1435V25.1524C86.1131 24.3636 85.8097 23.6961 85.2333 23.1499C84.6871 22.6038 84.0196 22.3307 83.2308 22.3307H82.6391V21.8756H96.4745V22.3307H95.8829C95.094 22.3307 94.4113 22.619 93.8349 23.1954C93.2584 23.7416 92.9701 24.4091 92.9701 25.1979V50.4111C92.9701 51.1999 93.2584 51.8826 93.8349 52.4591C94.4113 53.0052 95.094 53.2783 95.8829 53.2783H96.4745V53.7334H82.6391V53.2783H83.2308ZM117.358 21.2385C122.971 21.2385 127.431 22.7252 130.738 25.6986C134.045 28.6719 135.699 32.7073 135.699 37.8045C135.699 42.9018 134.045 46.9371 130.738 49.9105C127.431 52.8839 122.971 54.3706 117.358 54.3706C111.745 54.3706 107.285 52.8839 103.978 49.9105C100.671 46.9371 99.0171 42.9018 99.0171 37.8045C99.0171 34.4367 99.7604 31.5088 101.247 29.0209C102.764 26.5026 104.903 24.5759 107.664 23.241C110.425 21.906 113.656 21.2385 117.358 21.2385ZM109.394 48.5451C111.366 51.1544 114.021 52.4591 117.358 52.4591C120.696 52.4591 123.335 51.1544 125.277 48.5451C127.249 45.9055 128.235 42.3253 128.235 37.8045C128.235 34.8311 127.795 32.237 126.915 30.0221C126.036 27.8072 124.776 26.1082 123.138 24.9249C121.5 23.7416 119.573 23.1499 117.358 23.1499C114.021 23.1499 111.366 24.4698 109.394 27.1094C107.452 29.7187 106.481 33.2837 106.481 37.8045C106.481 42.3253 107.452 45.9055 109.394 48.5451ZM136.247 21.2385C141.86 21.2385 146.32 22.7252 149.627 25.6986C152.934 28.6719 154.588 32.7073 154.588 37.8045C154.588 42.9018 152.934 46.9371 149.627 49.9105C146.32 52.8839 141.86 54.3706 136.247 54.3706C130.634 54.3706 126.174 52.8839 122.867 49.9105C119.56 46.9371 117.906 42.9018 117.906 37.8045C117.906 34.4367 118.649 31.5088 120.136 29.0209C121.653 26.5026 123.792 24.5759 126.553 23.241C129.314 21.906 132.545 21.2385 136.247 21.2385ZM128.283 48.5451C130.255 51.1544 132.909 52.4591 136.247 52.4591C139.584 52.4591 142.224 51.1544 144.166 48.5451C146.138 45.9055 147.124 42.3253 147.124 37.8045C147.124 34.8311 146.684 32.237 145.804 30.0221C144.924 27.8072 143.665 26.1082 142.027 24.9249C140.388 23.7416 138.462 23.1499 136.247 23.1499C132.909 23.1499 130.255 24.4698 128.283 27.1094C126.341 29.7187 125.37 33.2837 125.37 37.8045C125.37 42.3253 126.341 45.9055 128.283 48.5451ZM158.498 49.5009C158.498 47.3163 158.968 45.4504 159.908 43.903H160.318C160.288 44.1457 160.273 44.3884 160.273 44.6312C160.273 46.7247 161.016 48.5603 162.503 50.138C164.02 51.6854 166.083 52.4591 168.692 52.4591C170.725 52.4591 172.303 51.9736 173.425 51.0027C174.578 50.0318 175.155 48.803 175.155 47.3163C175.155 45.5262 173.941 43.9637 171.514 42.6287L163.595 37.3949C162.017 36.4847 160.879 35.3924 160.182 34.1181C159.514 32.8135 159.18 31.4936 159.18 30.1586C159.18 27.3066 160.075 25.1069 161.865 23.5595C163.686 22.0122 166.007 21.2385 168.829 21.2385C170.497 21.2385 172.561 21.3902 175.018 21.6936H177.885L177.294 28.3837H176.839C176.839 26.806 176.247 25.5468 175.064 24.6063C173.911 23.6354 172.363 23.1499 170.422 23.1499C168.055 23.1499 166.341 23.8781 165.279 25.3345C164.733 26.0323 164.46 26.8212 164.46 27.701C164.46 29.1574 165.521 30.5076 167.645 31.7515L176.338 37.3949C179.069 38.9726 180.434 41.2937 180.434 44.3581C180.434 47.6046 179.327 50.0925 177.112 51.8219C174.927 53.521 172.014 54.3706 168.374 54.3706C166.31 54.3706 164.399 54.1278 162.639 53.6424C160.91 53.1266 159.635 52.4439 158.816 51.5944C158.604 51.0179 158.498 50.3201 158.498 49.5009ZM184.77 53.2783C185.558 53.2783 186.226 53.0052 186.772 52.4591C187.349 51.8826 187.652 51.1999 187.682 50.4111V25.0614C187.591 23.9995 187.091 23.2106 186.18 22.6948C185.725 22.4521 185.255 22.3307 184.77 22.3307H184.178V21.8756H201.609C202.549 21.8756 203.581 21.7846 204.703 21.6026C205.826 21.4205 206.615 21.2385 207.07 21.0564V29.0209H206.615V28.4747C206.615 27.1094 206.205 26.0171 205.386 25.1979C204.597 24.3484 203.52 23.8933 202.155 23.8326H194.509V37.0763H200.516C201.639 37.046 202.564 36.6667 203.293 35.9386C204.021 35.18 204.385 34.2546 204.385 33.1624V32.7528H204.84V43.2658H204.385V42.9018C204.385 41.3847 203.778 40.2621 202.564 39.5339C201.958 39.2002 201.29 39.0181 200.562 38.9878H194.509V51.7764H200.471C202.686 51.7764 204.537 51.1393 206.023 49.865C207.54 48.5906 208.663 46.7854 209.391 44.4491H209.846L207.753 53.7334H184.178V53.2783H184.77ZM219.306 19.236C219.792 19.2056 220.565 19.1905 221.627 19.1905C222.659 19.1905 224.024 19.418 225.723 19.8731C227.453 20.2979 229.046 20.9806 230.502 21.9211C231.958 22.8617 233.293 23.9995 234.507 25.3345C236.752 27.8224 238.512 30.811 239.786 34.3002C241.607 29.1119 243.973 25.1372 246.886 22.3762C249.101 20.2827 251.543 19.236 254.213 19.236C254.335 19.236 254.456 19.236 254.577 19.236V19.6911C253.06 19.7214 251.483 20.5255 249.844 22.1032C248.236 23.6506 246.825 25.5317 245.612 27.7466C244.398 29.9614 243.366 32.2673 242.517 34.6642C241.698 37.0612 241.212 39.1395 241.06 40.8993V50.4111C241.06 51.1696 241.334 51.8371 241.88 52.4136C242.456 52.9901 243.154 53.2783 243.973 53.2783H244.565V53.7334H230.729V53.2783H231.321C232.11 53.2783 232.777 53.0052 233.324 52.4591C233.9 51.8826 234.203 51.1999 234.234 50.4111V40.8538C233.87 37.577 232.777 34.1029 230.957 30.4317C228.863 26.184 226.512 23.1651 223.903 21.375C222.386 20.3131 220.854 19.7518 219.306 19.6911V19.236ZM269.98 21.2385C275.593 21.2385 280.053 22.7252 283.361 25.6986C286.668 28.6719 288.321 32.7073 288.321 37.8045C288.321 42.9018 286.668 46.9371 283.361 49.9105C280.053 52.8839 275.593 54.3706 269.98 54.3706C264.367 54.3706 259.907 52.8839 256.6 49.9105C253.293 46.9371 251.639 42.9018 251.639 37.8045C251.639 34.4367 252.383 31.5088 253.869 29.0209C255.386 26.5026 257.525 24.5759 260.286 23.241C263.047 21.906 266.279 21.2385 269.98 21.2385ZM262.016 48.5451C263.988 51.1544 266.643 52.4591 269.98 52.4591C273.318 52.4591 275.957 51.1544 277.899 48.5451C279.871 45.9055 280.857 42.3253 280.857 37.8045C280.857 34.8311 280.418 32.237 279.538 30.0221C278.658 27.8072 277.399 26.1082 275.76 24.9249C274.122 23.7416 272.195 23.1499 269.98 23.1499C266.643 23.1499 263.988 24.4698 262.016 27.1094C260.074 29.7187 259.103 33.2837 259.103 37.8045C259.103 42.3253 260.074 45.9055 262.016 48.5451ZM325.243 22.3307H324.469C323.832 22.3307 323.27 22.5431 322.785 22.9679C322.33 23.3623 322.102 23.8629 322.102 24.4698V42.2191C322.102 45.951 320.934 48.9092 318.598 51.0938C316.262 53.2783 313.061 54.3706 308.995 54.3706C304.201 54.3706 300.53 53.3086 297.981 51.1848C295.433 49.0306 294.158 46.0572 294.158 42.2646V24.6063C294.158 23.9388 293.916 23.3927 293.43 22.9679C292.975 22.5431 292.414 22.3307 291.746 22.3307H291.018V21.8756H304.125V22.3307H303.397C302.73 22.3307 302.168 22.5431 301.713 22.9679C301.258 23.3623 301.015 23.8781 300.985 24.5153V41.9005C300.985 45.1166 301.774 47.6652 303.352 49.5464C304.929 51.4275 307.099 52.3681 309.86 52.3681C312.621 52.3681 314.805 51.4882 316.413 49.7284C318.021 47.9383 318.841 45.5262 318.871 42.4922V24.5153C318.871 23.8781 318.628 23.3623 318.143 22.9679C317.688 22.5431 317.126 22.3307 316.459 22.3307H315.731V21.8756H325.243V22.3307ZM340.739 23.8781H338.782C338.721 23.8781 338.676 23.8781 338.646 23.8781V50.4111C338.676 51.5337 339.161 52.3681 340.102 52.9142C340.557 53.1569 341.042 53.2783 341.558 53.2783H342.15V53.7334H328.315V53.2783H328.906C329.998 53.2783 330.833 52.808 331.409 51.8674C331.652 51.4427 331.789 50.9724 331.819 50.4566V25.1979C331.789 24.4091 331.485 23.7416 330.909 23.1954C330.363 22.619 329.695 22.3307 328.906 22.3307H328.315V21.8756H343.925C346.868 21.8756 349.356 22.5128 351.389 23.7871C352.42 24.4242 353.239 25.3193 353.846 26.4722C354.453 27.5948 354.756 28.8843 354.756 30.3407C354.756 31.7667 354.499 33.0865 353.983 34.3002C353.497 35.5138 352.663 36.5757 351.48 37.4859C350.327 38.3962 348.931 38.9423 347.293 39.1243C349.052 39.7008 350.6 41.0358 351.935 43.1293C355.212 48.3783 357.639 51.5034 359.217 52.5046C360.005 52.9901 360.991 53.2479 362.175 53.2783V53.7334H357.715C355.136 53.7334 352.982 53.3845 351.252 52.6866C349.523 51.9585 348.112 50.7297 347.02 49.0002C346.473 48.1204 345.776 46.8005 344.926 45.0408C344.077 43.2507 343.515 41.9764 343.242 41.2178C342.423 39.3974 341.391 38.381 340.147 38.1686V37.7135H341.558C342.924 37.7135 344.122 37.3039 345.154 36.4847C346.216 35.6655 346.929 34.3305 347.293 32.4797C347.414 31.8426 347.475 31.3419 347.475 30.9778C347.475 28.4899 346.974 26.6998 345.973 25.6075C344.972 24.4849 343.682 23.9084 342.104 23.8781C341.801 23.8781 341.346 23.8781 340.739 23.8781ZM408.373 35.9386C408.464 36.8488 408.509 38.0017 408.509 39.3974C408.509 40.7627 408.236 42.4466 407.69 44.4491C407.144 46.4213 406.158 48.1659 404.732 49.6829C401.819 52.808 397.814 54.3706 392.717 54.3706C386.527 54.3706 381.643 52.8535 378.062 49.8194C374.482 46.755 372.692 42.7652 372.692 37.85C372.692 32.9045 374.497 28.8995 378.108 25.8351C381.749 22.7707 386.543 21.2385 392.489 21.2385C394.765 21.2385 396.934 21.466 398.998 21.9211C401.061 22.3762 402.775 22.9679 404.14 23.6961L404.231 31.524H403.867C403.351 29.5822 402.487 27.9589 401.273 26.6543C399.089 24.318 396.146 23.1499 392.444 23.1499C388.742 23.1499 385.754 24.4698 383.478 27.1094C381.233 29.749 380.11 33.2534 380.11 37.6225C380.11 41.9612 381.279 45.4959 383.615 48.2266C385.981 50.9572 389.228 52.3681 393.354 52.4591C397.814 52.4591 401.364 51.0331 404.004 48.181C406.643 45.329 407.963 41.4606 407.963 36.5757C407.963 36.3633 407.963 36.1509 407.963 35.9386H408.373ZM442.52 53.2783H442.93V53.7334H428.412V53.2783H428.822C429.489 53.2783 429.974 53.0811 430.278 52.6866C430.612 52.2619 430.779 51.8674 430.779 51.5034C430.779 51.1393 430.703 50.7752 430.551 50.4111L428.321 44.8132H417.671L415.305 50.4111C415.153 50.8055 415.077 51.1848 415.077 51.5489C415.077 51.8826 415.229 52.2619 415.532 52.6866C415.866 53.0811 416.382 53.2783 417.08 53.2783H417.444V53.7334H407.704V53.2783H408.114C408.812 53.2783 409.51 53.0659 410.207 52.6411C410.905 52.2164 411.482 51.5792 411.937 50.7297L422.45 26.9274C423.876 23.9236 424.635 21.9363 424.726 20.9654H425.135L438.652 50.6386C439.107 51.5185 439.684 52.186 440.381 52.6411C441.079 53.0659 441.792 53.2783 442.52 53.2783ZM418.445 42.9018H427.547L423.133 31.706L418.445 42.9018ZM478.694 22.3307C477.935 22.3307 477.283 22.6038 476.737 23.1499C476.19 23.6657 475.902 24.3029 475.872 25.0614V48.5451C475.872 50.578 476.008 52.2922 476.281 53.6879L476.418 54.3706H476.008L453.025 32.4797V50.5476C453.025 51.3061 453.298 51.9585 453.844 52.5046C454.391 53.0204 455.043 53.2783 455.801 53.2783H456.666V53.7334H442.876V53.2783H443.695C444.484 53.2783 445.152 53.0204 445.698 52.5046C446.244 51.9585 446.517 51.291 446.517 50.5021V26.8818C446.517 24.8794 446.381 23.2106 446.108 21.8756L446.017 21.193H446.426L469.409 43.0838V25.1069C469.379 24.318 469.091 23.6657 468.545 23.1499C467.998 22.6038 467.346 22.3307 466.588 22.3307H465.768V21.8756H479.558V22.3307H478.694ZM499.143 21.8756C504.513 21.8756 508.761 23.3016 511.886 26.1537C515.011 29.0057 516.574 32.8893 516.574 37.8045C516.574 42.7197 515.011 46.6033 511.886 49.4554C508.761 52.3074 504.513 53.7334 499.143 53.7334H482.622V53.2783H483.214C484.003 53.2783 484.67 53.0052 485.217 52.4591C485.793 51.8826 486.096 51.1999 486.127 50.4111V24.9249C486.036 24.1967 485.717 23.5899 485.171 23.1044C484.625 22.5886 483.973 22.3307 483.214 22.3307H482.622V21.8756H499.143ZM498.551 51.8219C500.736 51.8219 502.617 51.2606 504.195 50.138C505.803 48.9851 507.032 47.3618 507.881 45.2683C508.731 43.1445 509.155 40.6565 509.155 37.8045C509.155 33.4961 508.2 30.0828 506.288 27.5645C504.407 25.0462 501.828 23.7871 498.551 23.7871H492.953V51.8219H498.551ZM520.014 53.2783C520.803 53.2783 521.47 53.0052 522.017 52.4591C522.593 51.8826 522.896 51.1999 522.927 50.4111V25.1524C522.896 24.3636 522.593 23.6961 522.017 23.1499C521.47 22.6038 520.803 22.3307 520.014 22.3307H519.422V21.8756H533.258L533.212 22.3307H532.666C531.877 22.3307 531.195 22.6038 530.618 23.1499C530.042 23.6961 529.753 24.3636 529.753 25.1524V50.4111C529.753 51.1999 530.042 51.8826 530.618 52.4591C531.195 53.0052 531.877 53.2783 532.666 53.2783H533.212L533.258 53.7334H519.422V53.2783H520.014ZM553.499 21.8756C558.869 21.8756 563.117 23.3016 566.242 26.1537C569.367 29.0057 570.929 32.8893 570.929 37.8045C570.929 42.7197 569.367 46.6033 566.242 49.4554C563.117 52.3074 558.869 53.7334 553.499 53.7334H536.978V53.2783H537.57C538.358 53.2783 539.026 53.0052 539.572 52.4591C540.149 51.8826 540.452 51.1999 540.482 50.4111V24.9249C540.391 24.1967 540.073 23.5899 539.527 23.1044C538.98 22.5886 538.328 22.3307 537.57 22.3307H536.978V21.8756H553.499ZM552.907 51.8219C555.091 51.8219 556.973 51.2606 558.55 50.138C560.158 48.9851 561.387 47.3618 562.237 45.2683C563.086 43.1445 563.511 40.6565 563.511 37.8045C563.511 33.4961 562.555 30.0828 560.644 27.5645C558.763 25.0462 556.184 23.7871 552.907 23.7871H547.309V51.8219H552.907ZM615.252 62.0619C611.945 63.7307 608.593 64.0037 605.194 62.8811C601.584 61.7282 598.474 59.2706 595.865 55.5083C594.469 53.5058 593.271 51.1848 592.269 48.5451L590.813 44.6767H580.072L577.66 50.4111C577.509 50.8055 577.433 51.1241 577.433 51.3668C577.433 51.6095 577.478 51.8826 577.569 52.186C577.691 52.4591 577.918 52.717 578.252 52.9597C578.616 53.1721 579.01 53.2783 579.435 53.2783H579.799V53.7334H570.06V53.2783H570.469C571.167 53.2783 571.85 53.0811 572.517 52.6866C573.215 52.2619 573.792 51.6399 574.247 50.8207L584.396 27.6555C583.213 24.9855 581.953 23.1499 580.618 22.1487C579.496 21.2991 578.419 20.8744 577.387 20.8744C576.386 20.8744 575.445 21.0261 574.565 21.3295L574.474 20.8744C576.659 19.7518 578.753 19.1905 580.755 19.1905C583.243 19.1905 585.473 20.1614 587.445 22.1032C589.387 24.0146 591.101 26.7756 592.588 30.3862L599.187 46.6792C601.675 52.8383 604.224 57.0709 606.833 59.3768C607.895 60.3173 608.987 60.9697 610.11 61.3338C611.232 61.6978 612.173 61.8799 612.931 61.8799C613.72 61.8799 614.479 61.7889 615.207 61.6068L615.252 62.0619ZM580.846 42.7197H590.13L586.945 34.3002C586.793 33.8754 586.58 33.2989 586.307 32.5707C586.034 31.8122 585.852 31.2812 585.761 30.9778L580.846 42.7197ZM617.192 23.7416V50.4566C617.222 51.2455 617.51 51.913 618.056 52.4591C618.633 53.0052 619.316 53.2783 620.104 53.2783H620.651L620.696 53.7334H606.861V53.2783H607.452C608.211 53.2783 608.863 53.0052 609.409 52.4591C609.986 51.913 610.304 51.2606 610.365 50.5021V23.7416H604.221C602.825 23.7719 601.718 24.2119 600.899 25.0614C600.08 25.9109 599.67 27.0184 599.67 28.3837V28.9298H599.215V21.0109C599.64 21.193 600.398 21.375 601.49 21.557C602.613 21.7391 603.645 21.8301 604.585 21.8301H622.926C624.413 21.7998 625.626 21.6784 626.567 21.466C627.508 21.2536 628.084 21.1019 628.296 21.0109V28.9298H627.841V28.3837C627.841 27.0184 627.432 25.9109 626.612 25.0614C625.793 24.2119 624.686 23.7719 623.29 23.7416H617.192ZM631.392 53.2783C632.181 53.2783 632.848 53.0052 633.394 52.4591C633.971 51.8826 634.274 51.1999 634.304 50.4111V25.0614C634.213 23.9995 633.713 23.2106 632.803 22.6948C632.348 22.4521 631.877 22.3307 631.392 22.3307H630.8V21.8756H648.231C649.171 21.8756 650.203 21.7846 651.326 21.6026C652.448 21.4205 653.237 21.2385 653.692 21.0564V29.0209H653.237V28.4747C653.237 27.1094 652.828 26.0171 652.008 25.1979C651.219 24.3484 650.142 23.8933 648.777 23.8326H641.131V37.0763H647.139C648.261 37.046 649.187 36.6667 649.915 35.9386C650.643 35.18 651.007 34.2546 651.007 33.1624V32.7528H651.462V43.2658H651.007V42.9018C651.007 41.3847 650.4 40.2621 649.187 39.5339C648.58 39.2002 647.912 39.0181 647.184 38.9878H641.131V51.7764H647.093C649.308 51.7764 651.159 51.1393 652.645 49.865C654.163 48.5906 655.285 46.7854 656.013 44.4491H656.468L654.375 53.7334H630.8V53.2783H631.392Z" fill="url(#paint0_linear_100_154)"/>
</g>
<defs>
<filter id="filter0_ddi_100_154" x="0.870106" y="-0.00957084" width="677.643" height="89.4634" filterUnits="userSpaceOnUse" color-interpolation-filters="sRGB">
<feFlood flood-opacity="0" result="BackgroundImageFix"/>
<feColorMatrix in="SourceAlpha" type="matrix" values="0 0 0 0 0 0 0 0 0 0 0 0 0 0 0 0 0 0 127 0" result="hardAlpha"/>
<feOffset dy="2.84444"/>
<feGaussianBlur stdDeviation="11.0222"/>
<feComposite in2="hardAlpha" operator="out"/>
<feColorMatrix type="matrix" values="0 0 0 0 0.6 0 0 0 0 0.856 0 0 0 0 1 0 0 0 0.62 0"/>
<feBlend mode="normal" in2="BackgroundImageFix" result="effect1_dropShadow_100_154"/>
<feColorMatrix in="SourceAlpha" type="matrix" values="0 0 0 0 0 0 0 0 0 0 0 0 0 0 0 0 0 0 127 0" result="hardAlpha"/>
<feOffset dy="2.84444"/>
<feGaussianBlur stdDeviation="1.42222"/>
<feComposite in2="hardAlpha" operator="out"/>
<feColorMatrix type="matrix" values="0 0 0 0 0 0 0 0 0 0 0 0 0 0 0 0 0 0 0.25 0"/>
<feBlend mode="normal" in2="effect1_dropShadow_100_154" result="effect2_dropShadow_100_154"/>
<feBlend mode="normal" in="SourceGraphic" in2="effect2_dropShadow_100_154" result="shape"/>
<feColorMatrix in="SourceAlpha" type="matrix" values="0 0 0 0 0 0 0 0 0 0 0 0 0 0 0 0 0 0 127 0" result="hardAlpha"/>
<feOffset dy="2.84444"/>
<feGaussianBlur stdDeviation="1.42222"/>
<feComposite in2="hardAlpha" operator="arithmetic" k2="-1" k3="1"/>
<feColorMatrix type="matrix" values="0 0 0 0 0.85 0 0 0 0 0.216042 0 0 0 0 0.562792 0 0 0 0.3 0"/>
<feBlend mode="normal" in2="shape" result="effect3_innerShadow_100_154"/>
</filter>
<linearGradient id="paint0_linear_100_154" x1="339.096" y1="40.2334" x2="339.3" y2="70.7362" gradientUnits="userSpaceOnUse">
<stop stop-color="#FFC5B4"/>
<stop offset="1" stop-color="#F49071"/>
</linearGradient>
</defs>
</svg>
