<svg width="1084" height="746" viewBox="0 0 1084 746" fill="none" xmlns="http://www.w3.org/2000/svg">
<g filter="url(#filter0_d_52_5)">
<mask id="path-1-outside-1_52_5" maskUnits="userSpaceOnUse" x="31" y="27" width="1022" height="684" fill="black">
<rect fill="white" x="31" y="27" width="1022" height="684"/>
<path fill-rule="evenodd" clip-rule="evenodd" d="M1045 376.462V702.5H39V376.462V375.5H39.0034C40.009 232.553 264.823 35 542 35C819.177 35 1043.99 232.553 1045 375.5H1045V376.462Z"/>
</mask>
<path fill-rule="evenodd" clip-rule="evenodd" d="M1045 376.462V702.5H39V376.462V375.5H39.0034C40.009 232.553 264.823 35 542 35C819.177 35 1043.99 232.553 1045 375.5H1045V376.462Z" fill="#101119" fill-opacity="0.85" shape-rendering="crispEdges"/>
<path d="M1045 702.5V710.5H1053V702.5H1045ZM39 702.5H31V710.5H39V702.5ZM39 375.5V367.5H31V375.5H39ZM39.0034 375.5V383.5H46.9473L47.0032 375.556L39.0034 375.5ZM1045 375.5L1037 375.556L1037.05 383.5H1045V375.5ZM1045 375.5H1053V367.5H1045V375.5ZM1037 376.462V702.5H1053V376.462H1037ZM1045 694.5H39V710.5H1045V694.5ZM47 702.5V376.462H31V702.5H47ZM47 376.462V375.5H31V376.462H47ZM39 383.5H39.0034V367.5H39V383.5ZM47.0032 375.556C47.4798 307.8 101.528 224.735 191.693 158.078C281.425 91.7411 405.281 43 542 43V27C401.542 27 274.402 77.0355 182.182 145.212C90.3938 213.069 31.5325 300.253 31.0036 375.444L47.0032 375.556ZM542 43C678.719 43 802.575 91.7411 892.307 158.078C982.472 224.735 1036.52 307.8 1037 375.556L1053 375.444C1052.47 300.253 993.606 213.069 901.818 145.212C809.598 77.0355 682.458 27 542 27V43ZM1045 383.5H1045V367.5H1045V383.5ZM1037 375.5V376.462H1053V375.5H1037Z" fill="#FFEEE9" mask="url(#path-1-outside-1_52_5)"/>
</g>
<defs>
<filter id="filter0_d_52_5" x="0" y="0" width="1084" height="745.5" filterUnits="userSpaceOnUse" color-interpolation-filters="sRGB">
<feFlood flood-opacity="0" result="BackgroundImageFix"/>
<feColorMatrix in="SourceAlpha" type="matrix" values="0 0 0 0 0 0 0 0 0 0 0 0 0 0 0 0 0 0 127 0" result="hardAlpha"/>
<feOffset dy="4"/>
<feGaussianBlur stdDeviation="15.5"/>
<feComposite in2="hardAlpha" operator="out"/>
<feColorMatrix type="matrix" values="0 0 0 0 0.6 0 0 0 0 0.854902 0 0 0 0 1 0 0 0 0.62 0"/>
<feBlend mode="normal" in2="BackgroundImageFix" result="effect1_dropShadow_52_5"/>
<feBlend mode="normal" in="SourceGraphic" in2="effect1_dropShadow_52_5" result="shape"/>
</filter>
</defs>
</svg>
