<svg width="390" height="579" viewBox="0 0 390 579" fill="none" xmlns="http://www.w3.org/2000/svg">
<g filter="url(#filter0_d_100_13)">
<mask id="path-1-outside-1_100_13" maskUnits="userSpaceOnUse" x="28" y="27" width="333" height="517" fill="black">
<rect fill="white" x="28" y="27" width="333" height="517"/>
<path fill-rule="evenodd" clip-rule="evenodd" d="M353 181C353 100.366 282.037 35 194.5 35C106.963 35 36 100.366 36 181V536H353V181Z"/>
</mask>
<path fill-rule="evenodd" clip-rule="evenodd" d="M353 181C353 100.366 282.037 35 194.5 35C106.963 35 36 100.366 36 181V536H353V181Z" fill="#101119" fill-opacity="0.85" shape-rendering="crispEdges"/>
<path d="M36 536H28V544H36V536ZM353 536V544H361V536H353ZM194.5 43C278.25 43 345 105.391 345 181H361C361 95.3421 285.824 27 194.5 27V43ZM44 181C44 105.391 110.75 43 194.5 43V27C103.176 27 28 95.3421 28 181H44ZM44 536V181H28V536H44ZM353 528H36V544H353V528ZM345 181V536H361V181H345Z" fill="#FFEEE9" mask="url(#path-1-outside-1_100_13)"/>
</g>
<defs>
<filter id="filter0_d_100_13" x="-3" y="0" width="395" height="579" filterUnits="userSpaceOnUse" color-interpolation-filters="sRGB">
<feFlood flood-opacity="0" result="BackgroundImageFix"/>
<feColorMatrix in="SourceAlpha" type="matrix" values="0 0 0 0 0 0 0 0 0 0 0 0 0 0 0 0 0 0 127 0" result="hardAlpha"/>
<feOffset dy="4"/>
<feGaussianBlur stdDeviation="15.5"/>
<feComposite in2="hardAlpha" operator="out"/>
<feColorMatrix type="matrix" values="0 0 0 0 0.6 0 0 0 0 0.854902 0 0 0 0 1 0 0 0 0.62 0"/>
<feBlend mode="normal" in2="BackgroundImageFix" result="effect1_dropShadow_100_13"/>
<feBlend mode="normal" in="SourceGraphic" in2="effect1_dropShadow_100_13" result="shape"/>
</filter>
</defs>
</svg>
