<svg width="210" height="103" viewBox="0 0 210 103" fill="none" xmlns="http://www.w3.org/2000/svg">
<g filter="url(#filter0_ddi_100_18)">
<path d="M50.5725 36.68C51.1272 36.68 51.5965 36.488 51.9805 36.104C52.3858 35.6987 52.5992 35.2187 52.6205 34.664V16.84C52.5565 16.0933 52.2045 15.5387 51.5645 15.176C51.2445 15.0053 50.9138 14.92 50.5725 14.92H50.1565V14.6H59.1485C60.0872 14.6 60.9085 14.5253 61.6125 14.376C62.3165 14.2267 62.7752 14.1093 62.9885 14.024V19.624H62.6365V19.24C62.6578 18.28 62.3805 17.512 61.8045 16.936C61.2498 16.3387 60.4925 16.0187 59.5325 15.976H57.4205V25.288H62.5085C63.2978 25.2667 63.9485 25 64.4605 24.488C64.9725 23.9547 65.2285 23.304 65.2285 22.536V22.248H65.5165V29.64H65.2285V29.384C65.2285 28.5947 64.9725 27.944 64.4605 27.432C63.9485 26.92 63.3085 26.6533 62.5405 26.632H57.4205V35.624H63.6605C65.2178 35.624 66.5192 35.176 67.5645 34.28C68.6312 33.384 69.4205 32.1147 69.9325 30.472H70.2525L68.7485 37H50.1565V36.68H50.5725ZM96.394 14.92C95.8607 14.92 95.402 15.112 95.018 15.496C94.634 15.8587 94.4313 16.3067 94.41 16.84V33.352C94.41 34.7813 94.506 35.9867 94.698 36.968L94.794 37.448H94.506L78.346 22.056V34.76C78.346 35.2933 78.538 35.752 78.922 36.136C79.306 36.4987 79.7647 36.68 80.298 36.68H80.906V37H71.21V36.68H71.786C72.3407 36.68 72.81 36.4987 73.194 36.136C73.578 35.752 73.77 35.2827 73.77 34.728V18.12C73.77 16.712 73.674 15.5387 73.482 14.6L73.418 14.12H73.706L89.866 29.512V16.872C89.8447 16.3173 89.642 15.8587 89.258 15.496C88.874 15.112 88.4153 14.92 87.882 14.92H87.306V14.6H97.002V14.92H96.394ZM111.026 15.912V34.696C111.047 35.2507 111.25 35.72 111.634 36.104C112.039 36.488 112.519 36.68 113.074 36.68H113.458L113.49 37H103.762V36.68H104.178C104.711 36.68 105.17 36.488 105.554 36.104C105.959 35.72 106.183 35.2613 106.226 34.728V15.912H101.906C100.924 15.9333 100.146 16.2427 99.5695 16.84C98.9935 17.4373 98.7055 18.216 98.7055 19.176V19.56H98.3855V13.992C98.6842 14.12 99.2175 14.248 99.9855 14.376C100.775 14.504 101.5 14.568 102.161 14.568H115.058C116.103 14.5467 116.956 14.4613 117.618 14.312C118.279 14.1627 118.684 14.056 118.834 13.992V19.56H118.514V19.176C118.514 18.216 118.226 17.4373 117.65 16.84C117.074 16.2427 116.295 15.9333 115.314 15.912H111.026ZM121.01 36.68C121.565 36.68 122.034 36.488 122.418 36.104C122.823 35.6987 123.037 35.2187 123.058 34.664V16.84C122.994 16.0933 122.642 15.5387 122.002 15.176C121.682 15.0053 121.351 14.92 121.01 14.92H120.594V14.6H132.85C133.511 14.6 134.237 14.536 135.026 14.408C135.815 14.28 136.37 14.152 136.69 14.024V19.624H136.37V19.24C136.37 18.28 136.082 17.512 135.506 16.936C134.951 16.3387 134.194 16.0187 133.234 15.976H127.858V25.288H132.082C132.871 25.2667 133.522 25 134.034 24.488C134.546 23.9547 134.802 23.304 134.802 22.536V22.248H135.122V29.64H134.802V29.384C134.802 28.3173 134.375 27.528 133.522 27.016C133.095 26.7813 132.626 26.6533 132.114 26.632H127.858V35.624H132.05C133.607 35.624 134.909 35.176 135.954 34.28C137.021 33.384 137.81 32.1147 138.322 30.472H138.642L137.17 37H120.594V36.68H121.01ZM149.489 16.008H148.113C148.07 16.008 148.038 16.008 148.017 16.008V34.664C148.038 35.4533 148.379 36.04 149.041 36.424C149.361 36.5947 149.702 36.68 150.065 36.68H150.481V37H140.753V36.68H141.169C141.937 36.68 142.523 36.3493 142.929 35.688C143.099 35.3893 143.195 35.0587 143.217 34.696V16.936C143.195 16.3813 142.982 15.912 142.577 15.528C142.193 15.1227 141.723 14.92 141.169 14.92H140.753V14.6H151.729C153.798 14.6 155.547 15.048 156.977 15.944C157.702 16.392 158.278 17.0213 158.705 17.832C159.131 18.6213 159.345 19.528 159.345 20.552C159.345 21.5547 159.163 22.4827 158.801 23.336C158.459 24.1893 157.873 24.936 157.041 25.576C156.23 26.216 155.249 26.6 154.097 26.728C155.334 27.1333 156.422 28.072 157.361 29.544C159.665 33.2347 161.371 35.432 162.481 36.136C163.035 36.4773 163.729 36.6587 164.561 36.68V37H161.425C159.611 37 158.097 36.7547 156.881 36.264C155.665 35.752 154.673 34.888 153.905 33.672C153.521 33.0533 153.03 32.1253 152.433 30.888C151.835 29.6293 151.441 28.7333 151.249 28.2C150.673 26.92 149.947 26.2053 149.073 26.056V25.736H150.065C151.025 25.736 151.867 25.448 152.593 24.872C153.339 24.296 153.841 23.3573 154.097 22.056C154.182 21.608 154.225 21.256 154.225 21C154.225 19.2507 153.873 17.992 153.169 17.224C152.465 16.4347 151.558 16.0293 150.449 16.008C150.235 16.008 149.915 16.008 149.489 16.008ZM16.1216 55.744C16.463 55.7227 17.007 55.712 17.7536 55.712C18.479 55.712 19.439 55.872 20.6336 56.192C21.8496 56.4907 22.9696 56.9707 23.9936 57.632C25.0176 58.2933 25.9563 59.0933 26.8096 60.032C28.3883 61.7813 29.6256 63.8827 30.5216 66.336C31.8016 62.688 33.4656 59.8933 35.5136 57.952C37.071 56.48 38.7883 55.744 40.6656 55.744C40.751 55.744 40.8363 55.744 40.9216 55.744V56.064C39.855 56.0853 38.7456 56.6507 37.5936 57.76C36.463 58.848 35.471 60.1707 34.6176 61.728C33.7643 63.2853 33.039 64.9067 32.4416 66.592C31.8656 68.2773 31.5243 69.7387 31.4176 70.976V77.664C31.4176 78.1973 31.6096 78.6667 31.9936 79.072C32.399 79.4773 32.8896 79.68 33.4656 79.68H33.8816V80H24.1536V79.68H24.5696C25.1243 79.68 25.5936 79.488 25.9776 79.104C26.383 78.6987 26.5963 78.2187 26.6176 77.664V70.944C26.3616 68.64 25.5936 66.1973 24.3136 63.616C22.8416 60.6293 21.1883 58.5067 19.3536 57.248C18.287 56.5013 17.2096 56.1067 16.1216 56.064V55.744ZM51.7519 57.152C55.6985 57.152 58.8345 58.1973 61.1599 60.288C63.4852 62.3787 64.6479 65.216 64.6479 68.8C64.6479 72.384 63.4852 75.2213 61.1599 77.312C58.8345 79.4027 55.6985 80.448 51.7519 80.448C47.8052 80.448 44.6692 79.4027 42.3439 77.312C40.0185 75.2213 38.8559 72.384 38.8559 68.8C38.8559 66.432 39.3785 64.3733 40.4239 62.624C41.4905 60.8533 42.9945 59.4987 44.9359 58.56C46.8772 57.6213 49.1492 57.152 51.7519 57.152ZM46.1519 76.352C47.5385 78.1867 49.4052 79.104 51.7519 79.104C54.0985 79.104 55.9545 78.1867 57.3199 76.352C58.7065 74.496 59.3999 71.9787 59.3999 68.8C59.3999 66.7093 59.0905 64.8853 58.4719 63.328C57.8532 61.7707 56.9679 60.576 55.8159 59.744C54.6639 58.912 53.3092 58.496 51.7519 58.496C49.4052 58.496 47.5385 59.424 46.1519 61.28C44.7865 63.1147 44.1039 65.6213 44.1039 68.8C44.1039 71.9787 44.7865 74.496 46.1519 76.352ZM90.6081 57.92H90.0641C89.6161 57.92 89.2215 58.0693 88.8801 58.368C88.5601 58.6453 88.4001 58.9973 88.4001 59.424V71.904C88.4001 74.528 87.5788 76.608 85.9361 78.144C84.2935 79.68 82.0428 80.448 79.1841 80.448C75.8135 80.448 73.2321 79.7013 71.4401 78.208C69.6481 76.6933 68.7521 74.6027 68.7521 71.936V59.52C68.7521 59.0507 68.5815 58.6667 68.2401 58.368C67.9201 58.0693 67.5255 57.92 67.0561 57.92H66.5441V57.6H75.7601V57.92H75.2481C74.7788 57.92 74.3841 58.0693 74.0641 58.368C73.7441 58.6453 73.5735 59.008 73.5521 59.456V71.68C73.5521 73.9413 74.1068 75.7333 75.2161 77.056C76.3255 78.3787 77.8508 79.04 79.7921 79.04C81.7335 79.04 83.2695 78.4213 84.4001 77.184C85.5308 75.9253 86.1068 74.2293 86.1281 72.096V59.456C86.1281 59.008 85.9575 58.6453 85.6161 58.368C85.2961 58.0693 84.9015 57.92 84.4321 57.92H83.9201V57.6H90.6081V57.92ZM101.504 59.008H100.128C100.085 59.008 100.053 59.008 100.032 59.008V77.664C100.053 78.4533 100.395 79.04 101.056 79.424C101.376 79.5947 101.717 79.68 102.08 79.68H102.496V80H92.7681V79.68H93.1841C93.9521 79.68 94.5388 79.3493 94.9441 78.688C95.1148 78.3893 95.2108 78.0587 95.2321 77.696V59.936C95.2108 59.3813 94.9975 58.912 94.5921 58.528C94.2081 58.1227 93.7388 57.92 93.1841 57.92H92.7681V57.6H103.744C105.813 57.6 107.563 58.048 108.992 58.944C109.717 59.392 110.293 60.0213 110.72 60.832C111.147 61.6213 111.36 62.528 111.36 63.552C111.36 64.5547 111.179 65.4827 110.816 66.336C110.475 67.1893 109.888 67.936 109.056 68.576C108.245 69.216 107.264 69.6 106.112 69.728C107.349 70.1333 108.437 71.072 109.376 72.544C111.68 76.2347 113.387 78.432 114.496 79.136C115.051 79.4773 115.744 79.6587 116.576 79.68V80H113.44C111.627 80 110.112 79.7547 108.896 79.264C107.68 78.752 106.688 77.888 105.92 76.672C105.536 76.0533 105.045 75.1253 104.448 73.888C103.851 72.6293 103.456 71.7333 103.264 71.2C102.688 69.92 101.963 69.2053 101.088 69.056V68.736H102.08C103.04 68.736 103.883 68.448 104.608 67.872C105.355 67.296 105.856 66.3573 106.112 65.056C106.197 64.608 106.24 64.256 106.24 64C106.24 62.2507 105.888 60.992 105.184 60.224C104.48 59.4347 103.573 59.0293 102.464 59.008C102.251 59.008 101.931 59.008 101.504 59.008ZM153.091 83.328C153.454 83.5413 153.859 83.7333 154.307 83.904C154.755 84.096 155.182 84.224 155.587 84.288C156.014 84.3733 156.472 84.416 156.963 84.416C157.475 84.416 157.998 84.352 158.531 84.224L158.659 84.544C157.464 85.12 156.259 85.408 155.043 85.408C152.248 85.408 149.4 83.8613 146.499 80.768L131.331 64.672V77.76C131.331 78.2933 131.523 78.752 131.907 79.136C132.291 79.4987 132.75 79.68 133.283 79.68H133.891V80H124.195V79.68H124.771C125.326 79.68 125.795 79.4987 126.179 79.136C126.563 78.752 126.755 78.2827 126.755 77.728V59.776C125.71 58.5813 124.92 57.7493 124.387 57.28C123.854 56.7893 123.384 56.384 122.979 56.064C122.552 55.744 122.147 55.4773 121.763 55.264C120.867 54.752 120.152 54.4533 119.619 54.368C119.064 54.2827 118.552 54.24 118.083 54.24C117.592 54.24 117.07 54.336 116.515 54.528L116.387 54.208C117.56 53.5253 118.766 53.184 120.003 53.184C122.691 53.184 125.539 54.784 128.547 57.984L142.851 73.184V59.872C142.83 59.3173 142.627 58.8587 142.243 58.496C141.859 58.112 141.4 57.92 140.867 57.92H140.291V57.6H149.987V57.92H149.379C148.846 57.92 148.387 58.112 148.003 58.496C147.619 58.8587 147.416 59.3067 147.395 59.84V78.048L147.907 78.56C148.035 78.688 148.227 78.912 148.483 79.232C148.76 79.5307 149.006 79.7867 149.219 80C149.432 80.2347 149.699 80.5227 150.019 80.864C150.36 81.2053 150.67 81.504 150.947 81.76C151.246 82.016 151.587 82.2933 151.971 82.592C152.376 82.8907 152.75 83.136 153.091 83.328ZM152.651 79.68C153.205 79.68 153.675 79.488 154.059 79.104C154.464 78.6987 154.677 78.2187 154.699 77.664V59.904C154.677 59.3493 154.464 58.88 154.059 58.496C153.675 58.112 153.205 57.92 152.651 57.92H152.235V57.6H161.963L161.931 57.92H161.547C160.992 57.92 160.512 58.112 160.107 58.496C159.701 58.88 159.499 59.3493 159.499 59.904V77.664C159.499 78.2187 159.701 78.6987 160.107 79.104C160.512 79.488 160.992 79.68 161.547 79.68H161.931L161.963 80H152.235V79.68H152.651ZM193.538 79.68H194.05V80H184.45V79.712H184.93C185.293 79.712 185.602 79.5733 185.858 79.296C186.114 78.9973 186.221 78.6773 186.178 78.336L184.93 66.72L178.914 77.088C178.125 78.4107 177.72 79.5947 177.698 80.64H177.378L169.154 66.816L167.906 78.336C167.864 78.6773 167.97 78.9973 168.226 79.296C168.482 79.5733 168.792 79.712 169.154 79.712H169.634V80H162.946V79.68H163.458C164.056 79.68 164.568 79.4987 164.994 79.136C165.442 78.7733 165.709 78.2827 165.794 77.664L168.45 57.152H168.738L178.658 73.472L188.194 57.152H188.482L191.202 77.664C191.309 78.2827 191.576 78.7733 192.002 79.136C192.45 79.4987 192.962 79.68 193.538 79.68Z" fill="url(#paint0_linear_100_18)"/>
</g>
<defs>
<filter id="filter0_ddi_100_18" x="0.621582" y="0.492188" width="208.929" height="102.416" filterUnits="userSpaceOnUse" color-interpolation-filters="sRGB">
<feFlood flood-opacity="0" result="BackgroundImageFix"/>
<feColorMatrix in="SourceAlpha" type="matrix" values="0 0 0 0 0 0 0 0 0 0 0 0 0 0 0 0 0 0 127 0" result="hardAlpha"/>
<feOffset dy="2"/>
<feGaussianBlur stdDeviation="7.75"/>
<feComposite in2="hardAlpha" operator="out"/>
<feColorMatrix type="matrix" values="0 0 0 0 0.6 0 0 0 0 0.856 0 0 0 0 1 0 0 0 0.62 0"/>
<feBlend mode="normal" in2="BackgroundImageFix" result="effect1_dropShadow_100_18"/>
<feColorMatrix in="SourceAlpha" type="matrix" values="0 0 0 0 0 0 0 0 0 0 0 0 0 0 0 0 0 0 127 0" result="hardAlpha"/>
<feOffset dy="2"/>
<feGaussianBlur stdDeviation="1"/>
<feComposite in2="hardAlpha" operator="out"/>
<feColorMatrix type="matrix" values="0 0 0 0 0 0 0 0 0 0 0 0 0 0 0 0 0 0 0.25 0"/>
<feBlend mode="normal" in2="effect1_dropShadow_100_18" result="effect2_dropShadow_100_18"/>
<feBlend mode="normal" in="SourceGraphic" in2="effect2_dropShadow_100_18" result="shape"/>
<feColorMatrix in="SourceAlpha" type="matrix" values="0 0 0 0 0 0 0 0 0 0 0 0 0 0 0 0 0 0 127 0" result="hardAlpha"/>
<feOffset dy="2"/>
<feGaussianBlur stdDeviation="1"/>
<feComposite in2="hardAlpha" operator="arithmetic" k2="-1" k3="1"/>
<feColorMatrix type="matrix" values="0 0 0 0 0.85 0 0 0 0 0.216042 0 0 0 0 0.562792 0 0 0 0.3 0"/>
<feBlend mode="normal" in2="shape" result="effect3_innerShadow_100_18"/>
</filter>
<linearGradient id="paint0_linear_100_18" x1="105.83" y1="49" x2="107.297" y2="91.9557" gradientUnits="userSpaceOnUse">
<stop stop-color="#FFC5B4"/>
<stop offset="1" stop-color="#F49071"/>
</linearGradient>
</defs>
</svg>
