<svg width="675" height="130" viewBox="0 0 675 130" fill="none" xmlns="http://www.w3.org/2000/svg">
<g filter="url(#filter0_ddi_60_1406)">
<path d="M92.514 27.328C93.5807 27.328 94.4767 27.3707 95.202 27.456V28.096C92.5567 28.224 90.274 28.864 88.354 30.016C86.178 31.3387 84.6207 32.576 83.682 33.728C82.786 34.8373 82.0607 35.7547 81.506 36.48C80.994 37.1627 80.482 37.9947 79.97 38.976C79.1593 40.4693 78.4127 41.9413 77.73 43.392L60.578 80.896C58.6153 85.12 57.57 87.9147 57.442 89.28H56.866L37.474 47.488C36.834 46.2933 36.0233 45.3973 35.042 44.8C34.0607 44.16 33.058 43.84 32.034 43.84H31.522V43.2H51.874V43.84H51.362C50.4233 43.84 49.7193 44.1387 49.25 44.736C48.8233 45.2907 48.61 45.824 48.61 46.336C48.61 46.848 48.6953 47.36 48.866 47.872L59.746 74.304L72.994 43.392C74.9993 38.656 77.346 35.0933 80.034 32.704C84.002 29.12 88.162 27.328 92.514 27.328ZM105.66 42.304C113.553 42.304 119.825 44.3947 124.476 48.576C129.127 52.7573 131.452 58.432 131.452 65.6C131.452 72.768 129.127 78.4427 124.476 82.624C119.825 86.8053 113.553 88.896 105.66 88.896C97.7667 88.896 91.4947 86.8053 86.844 82.624C82.1933 78.4427 79.868 72.768 79.868 65.6C79.868 60.864 80.9133 56.7467 83.004 53.248C85.1373 49.7067 88.1453 46.9973 92.028 45.12C95.9107 43.2427 100.455 42.304 105.66 42.304ZM94.46 80.704C97.2333 84.3733 100.967 86.208 105.66 86.208C110.353 86.208 114.065 84.3733 116.796 80.704C119.569 76.992 120.956 71.9573 120.956 65.6C120.956 61.4187 120.337 57.7707 119.1 54.656C117.863 51.5413 116.092 49.152 113.788 47.488C111.484 45.824 108.775 44.992 105.66 44.992C100.967 44.992 97.2333 46.848 94.46 50.56C91.7293 54.2293 90.364 59.2427 90.364 65.6C90.364 71.9573 91.7293 76.992 94.46 80.704ZM158.489 45.824V83.392C158.531 84.5013 158.937 85.44 159.705 86.208C160.515 86.976 161.475 87.36 162.585 87.36H163.353L163.417 88H143.961V87.36H144.793C145.859 87.36 146.777 86.976 147.545 86.208C148.355 85.44 148.803 84.5227 148.889 83.456V45.824H140.249C138.286 45.8667 136.729 46.4853 135.577 47.68C134.425 48.8747 133.849 50.432 133.849 52.352V53.12H133.209V41.984C133.806 42.24 134.873 42.496 136.409 42.752C137.987 43.008 139.438 43.136 140.76 43.136H166.553C168.643 43.0933 170.35 42.9227 171.673 42.624C172.995 42.3253 173.806 42.112 174.105 41.984V53.12H173.465V52.352C173.465 50.432 172.889 48.8747 171.737 47.68C170.585 46.4853 169.027 45.8667 167.065 45.824H158.489ZM178.458 87.36C179.567 87.36 180.506 86.976 181.274 86.208C182.084 85.3973 182.511 84.4373 182.554 83.328V47.68C182.426 46.1867 181.722 45.0773 180.442 44.352C179.802 44.0107 179.14 43.84 178.458 43.84H177.626V43.2H202.138C203.46 43.2 204.911 43.072 206.49 42.816C208.068 42.56 209.178 42.304 209.818 42.048V53.248H209.178V52.48C209.178 50.56 208.602 49.024 207.45 47.872C206.34 46.6773 204.826 46.0373 202.906 45.952H192.154V64.576H200.602C202.18 64.5333 203.482 64 204.506 62.976C205.53 61.9093 206.042 60.608 206.042 59.072V58.496H206.682V73.28H206.042V72.768C206.042 70.6347 205.188 69.056 203.482 68.032C202.628 67.5627 201.69 67.3067 200.666 67.264H192.154V85.248H200.538C203.652 85.248 206.255 84.352 208.346 82.56C210.479 80.768 212.058 78.2293 213.082 74.944H213.722L210.778 88H177.626V87.36H178.458ZM237.329 69.824C235.622 72.5547 234.769 75.3493 234.769 78.208C234.769 81.3227 235.899 84.16 238.161 86.72C239.398 88.1707 240.955 89.3013 242.833 90.112C244.753 90.9227 246.843 91.328 249.105 91.328C251.366 91.328 253.393 90.9013 255.185 90.048C258.769 88.2987 260.561 85.44 260.561 81.472C260.561 79.9787 260.049 78.4 259.025 76.736C258.043 75.072 256.55 73.5787 254.545 72.256L243.665 64.96C239.441 62.3147 237.329 58.9013 237.329 54.72C237.329 54.2933 237.35 53.8667 237.393 53.44C237.649 50.1547 238.95 47.488 241.297 45.44C243.686 43.3493 246.865 42.304 250.833 42.304C253.265 42.304 256.209 42.5173 259.665 42.944H263.632L262.801 52.352H262.225C262.182 50.1333 261.329 48.3627 259.665 47.04C258.001 45.6747 255.803 44.992 253.073 44.992C249.745 44.992 247.334 45.9947 245.841 48C245.115 49.024 244.753 50.1333 244.753 51.328C244.753 52.5227 245.115 53.5467 245.841 54.4C246.566 55.2107 247.718 56.1067 249.297 57.088L261.265 64.896C263.697 66.4747 265.595 68.3307 266.961 70.464C268.582 72.9813 269.393 75.5627 269.393 78.208C269.393 79.9147 269.03 81.728 268.305 83.648C267.622 85.5253 266.47 87.2747 264.849 88.896C263.27 90.5173 261.222 91.84 258.705 92.864C256.187 93.888 253.393 94.4 250.321 94.4C247.291 94.4 244.539 93.8667 242.065 92.8C237.499 90.88 234.598 87.5307 233.361 82.752C233.105 81.728 232.977 80.6613 232.977 79.552C232.977 75.968 234.235 72.576 236.753 69.376L237.329 69.824ZM321.748 43.84H320.66C319.764 43.84 318.974 44.1387 318.292 44.736C317.652 45.2907 317.332 45.9947 317.332 46.848V71.808C317.332 77.056 315.689 81.216 312.404 84.288C309.118 87.36 304.617 88.896 298.9 88.896C292.158 88.896 286.996 87.4027 283.412 84.416C279.828 81.3867 278.036 77.2053 278.036 71.872V47.04C278.036 46.1013 277.694 45.3333 277.012 44.736C276.372 44.1387 275.582 43.84 274.644 43.84H273.62V43.2H292.052V43.84H291.028C290.089 43.84 289.3 44.1387 288.66 44.736C288.02 45.2907 287.678 46.016 287.635 46.912V71.36C287.635 75.8827 288.745 79.4667 290.964 82.112C293.182 84.7573 296.233 86.08 300.116 86.08C303.998 86.08 307.07 84.8427 309.332 82.368C311.593 79.8507 312.745 76.4587 312.788 72.192V46.912C312.788 46.016 312.446 45.2907 311.764 44.736C311.124 44.1387 310.334 43.84 309.396 43.84H308.372V43.2H321.748V43.84ZM352.687 88.832C344.452 88.832 337.988 86.7627 333.295 82.624C328.602 78.4853 326.255 72.8107 326.255 65.6C326.255 58.3893 328.58 52.7147 333.231 48.576C337.882 44.3947 344.26 42.304 352.367 42.304C358.554 42.304 363.866 43.456 368.303 45.76L368.431 56.768H367.919C365.743 48.9173 360.772 44.992 353.007 44.992C347.972 44.992 343.983 46.8267 341.039 50.496C338.138 54.1227 336.687 59.0933 336.687 65.408C336.687 71.7227 338.074 76.736 340.847 80.448C343.663 84.16 347.46 86.08 352.239 86.208C357.188 86.208 360.964 84.9707 363.567 82.496C366.212 79.936 368.047 75.5413 369.071 69.312H369.583L370.223 80.32C366.767 86.0373 360.922 88.8747 352.687 88.832ZM402.625 88.832C394.39 88.832 387.926 86.7627 383.233 82.624C378.539 78.4853 376.193 72.8107 376.193 65.6C376.193 58.3893 378.518 52.7147 383.169 48.576C387.819 44.3947 394.198 42.304 402.305 42.304C408.491 42.304 413.803 43.456 418.241 45.76L418.369 56.768H417.857C415.681 48.9173 410.71 44.992 402.945 44.992C397.91 44.992 393.921 46.8267 390.977 50.496C388.075 54.1227 386.625 59.0933 386.625 65.408C386.625 71.7227 388.011 76.736 390.785 80.448C393.601 84.16 397.398 86.08 402.177 86.208C407.126 86.208 410.902 84.9707 413.505 82.496C416.15 79.936 417.985 75.5413 419.009 69.312H419.521L420.161 80.32C416.705 86.0373 410.859 88.8747 402.625 88.832ZM426.583 87.36C427.692 87.36 428.631 86.976 429.399 86.208C430.209 85.3973 430.636 84.4373 430.679 83.328V47.68C430.551 46.1867 429.847 45.0773 428.567 44.352C427.927 44.0107 427.265 43.84 426.583 43.84H425.751V43.2H450.263C451.585 43.2 453.036 43.072 454.615 42.816C456.193 42.56 457.303 42.304 457.943 42.048V53.248H457.303V52.48C457.303 50.56 456.727 49.024 455.575 47.872C454.465 46.6773 452.951 46.0373 451.031 45.952H440.279V64.576H448.727C450.305 64.5333 451.607 64 452.631 62.976C453.655 61.9093 454.167 60.608 454.167 59.072V58.496H454.807V73.28H454.167V72.768C454.167 70.6347 453.313 69.056 451.607 68.032C450.753 67.5627 449.815 67.3067 448.791 67.264H440.279V85.248H448.663C451.777 85.248 454.38 84.352 456.471 82.56C458.604 80.768 460.183 78.2293 461.207 74.944H461.847L458.903 88H425.751V87.36H426.583ZM466.638 82.048C466.638 78.976 467.299 76.352 468.622 74.176H469.198C469.155 74.5173 469.134 74.8587 469.134 75.2C469.134 78.144 470.179 80.7253 472.27 82.944C474.403 85.12 477.304 86.208 480.974 86.208C483.832 86.208 486.051 85.5253 487.63 84.16C489.251 82.7947 490.062 81.0667 490.062 78.976C490.062 76.4587 488.355 74.2613 484.942 72.384L473.806 65.024C471.587 63.744 469.987 62.208 469.006 60.416C468.067 58.5813 467.598 56.7253 467.598 54.848C467.598 50.8373 468.856 47.744 471.374 45.568C473.934 43.392 477.198 42.304 481.166 42.304C483.512 42.304 486.414 42.5173 489.87 42.944H493.902L493.07 52.352H492.43C492.43 50.1333 491.598 48.3627 489.934 47.04C488.312 45.6747 486.136 44.992 483.406 44.992C480.078 44.992 477.667 46.016 476.174 48.064C475.406 49.0453 475.022 50.1547 475.022 51.392C475.022 53.44 476.515 55.3387 479.502 57.088L491.726 65.024C495.566 67.2427 497.486 70.5067 497.486 74.816C497.486 79.3813 495.928 82.88 492.814 85.312C489.742 87.7013 485.646 88.896 480.526 88.896C477.624 88.896 474.936 88.5547 472.462 87.872C470.03 87.1467 468.238 86.1867 467.086 84.992C466.787 84.1813 466.638 83.2 466.638 82.048ZM517.279 45.952V64.576H525.727C527.305 64.5333 528.607 64 529.631 62.976C530.655 61.952 531.167 60.6507 531.167 59.072V58.496H531.807V73.28H531.167V72.768C531.167 71.1893 530.655 69.888 529.631 68.864C528.649 67.84 527.369 67.3067 525.791 67.264H517.279V83.328C517.279 84.9067 517.961 86.08 519.327 86.848C519.967 87.1893 520.649 87.36 521.375 87.36H522.143L522.207 88H502.751V87.36H503.583C504.692 87.36 505.631 86.976 506.399 86.208C507.209 85.3973 507.636 84.4373 507.679 83.328V47.68C507.593 46.6133 507.145 45.7173 506.335 44.992C505.567 44.224 504.649 43.84 503.583 43.84H502.751V43.2H527.263C529.353 43.2 531.081 43.0507 532.447 42.752C533.812 42.4107 534.644 42.176 534.943 42.048V52.864H534.303V52.224C534.303 50.3467 533.748 48.8533 532.639 47.744C531.572 46.592 530.1 45.9947 528.223 45.952H517.279ZM588.685 43.84H587.597C586.701 43.84 585.912 44.1387 585.229 44.736C584.589 45.2907 584.269 45.9947 584.269 46.848V71.808C584.269 77.056 582.626 81.216 579.341 84.288C576.056 87.36 571.554 88.896 565.837 88.896C559.096 88.896 553.933 87.4027 550.349 84.416C546.765 81.3867 544.973 77.2053 544.973 71.872V47.04C544.973 46.1013 544.632 45.3333 543.949 44.736C543.309 44.1387 542.52 43.84 541.581 43.84H540.557V43.2H558.989V43.84H557.965C557.026 43.84 556.237 44.1387 555.597 44.736C554.957 45.2907 554.616 46.016 554.573 46.912V71.36C554.573 75.8827 555.682 79.4667 557.901 82.112C560.12 84.7573 563.17 86.08 567.053 86.08C570.936 86.08 574.008 84.8427 576.269 82.368C578.53 79.8507 579.682 76.4587 579.725 72.192V46.912C579.725 46.016 579.384 45.2907 578.701 44.736C578.061 44.1387 577.272 43.84 576.333 43.84H575.309V43.2H588.685V43.84ZM593.645 87.36C594.754 87.36 595.693 86.976 596.461 86.208C597.272 85.3973 597.698 84.4373 597.741 83.328V47.872C597.698 46.7627 597.272 45.824 596.461 45.056C595.693 44.2453 594.754 43.84 593.645 43.84H592.813V43.2H612.269L612.205 43.84H611.437C610.328 43.84 609.368 44.2453 608.557 45.056C607.746 45.824 607.341 46.7627 607.341 47.872V85.248H615.725C618.84 85.248 621.442 84.352 623.533 82.56C625.666 80.768 627.245 78.2293 628.269 74.944H628.909L625.965 88H592.813V87.36H593.645ZM641.915 63.744L639.611 74.816H636.667L634.427 63.744L633.211 43.072H643.067L641.915 63.744ZM641.339 87.296C640.443 88.192 639.355 88.64 638.075 88.64C636.795 88.64 635.707 88.192 634.811 87.296C633.915 86.4 633.467 85.312 633.467 84.032C633.467 82.752 633.915 81.664 634.811 80.768C635.707 79.8293 636.795 79.36 638.075 79.36C639.355 79.36 640.443 79.8293 641.339 80.768C642.277 81.664 642.747 82.752 642.747 84.032C642.747 85.312 642.277 86.4 641.339 87.296Z" fill="url(#paint0_linear_60_1406)"/>
</g>
<defs>
<filter id="filter0_ddi_60_1406" x="0.521973" y="0.328003" width="673.545" height="129.072" filterUnits="userSpaceOnUse" color-interpolation-filters="sRGB">
<feFlood flood-opacity="0" result="BackgroundImageFix"/>
<feColorMatrix in="SourceAlpha" type="matrix" values="0 0 0 0 0 0 0 0 0 0 0 0 0 0 0 0 0 0 127 0" result="hardAlpha"/>
<feOffset dy="4"/>
<feGaussianBlur stdDeviation="15.5"/>
<feComposite in2="hardAlpha" operator="out"/>
<feColorMatrix type="matrix" values="0 0 0 0 0.6 0 0 0 0 0.856 0 0 0 0 1 0 0 0 0.62 0"/>
<feBlend mode="normal" in2="BackgroundImageFix" result="effect1_dropShadow_60_1406"/>
<feColorMatrix in="SourceAlpha" type="matrix" values="0 0 0 0 0 0 0 0 0 0 0 0 0 0 0 0 0 0 127 0" result="hardAlpha"/>
<feOffset dy="4"/>
<feGaussianBlur stdDeviation="2"/>
<feComposite in2="hardAlpha" operator="out"/>
<feColorMatrix type="matrix" values="0 0 0 0 0 0 0 0 0 0 0 0 0 0 0 0 0 0 0.25 0"/>
<feBlend mode="normal" in2="effect1_dropShadow_60_1406" result="effect2_dropShadow_60_1406"/>
<feBlend mode="normal" in="SourceGraphic" in2="effect2_dropShadow_60_1406" result="shape"/>
<feColorMatrix in="SourceAlpha" type="matrix" values="0 0 0 0 0 0 0 0 0 0 0 0 0 0 0 0 0 0 127 0" result="hardAlpha"/>
<feOffset dy="4"/>
<feGaussianBlur stdDeviation="2"/>
<feComposite in2="hardAlpha" operator="arithmetic" k2="-1" k3="1"/>
<feColorMatrix type="matrix" values="0 0 0 0 0.85 0 0 0 0 0.216042 0 0 0 0 0.562792 0 0 0 0.3 0"/>
<feBlend mode="normal" in2="shape" result="effect3_innerShadow_60_1406"/>
</filter>
<linearGradient id="paint0_linear_60_1406" x1="339.406" y1="69" x2="339.827" y2="112.002" gradientUnits="userSpaceOnUse">
<stop stop-color="#FFC5B4"/>
<stop offset="1" stop-color="#F49071"/>
</linearGradient>
</defs>
</svg>
