<svg width="237" height="108" viewBox="0 0 237 108" fill="none" xmlns="http://www.w3.org/2000/svg">
<g filter="url(#filter0_ddi_100_97)">
<path d="M103.116 13.664C103.65 13.664 104.098 13.6853 104.46 13.728V14.048C103.138 14.112 101.996 14.432 101.036 15.008C99.9484 15.6693 99.1697 16.288 98.7004 16.864C98.2524 17.4187 97.8897 17.8773 97.6124 18.24C97.3564 18.5813 97.1004 18.9973 96.8444 19.488C96.439 20.2347 96.0657 20.9707 95.7244 21.696L87.1484 40.448C86.167 42.56 85.6444 43.9573 85.5804 44.64H85.2924L75.5964 23.744C75.2764 23.1467 74.871 22.6987 74.3804 22.4C73.8897 22.08 73.3884 21.92 72.8764 21.92H72.6204V21.6H82.7964V21.92H82.5404C82.071 21.92 81.719 22.0693 81.4844 22.368C81.271 22.6453 81.1644 22.912 81.1644 23.168C81.1644 23.424 81.207 23.68 81.2924 23.936L86.7324 37.152L93.3564 21.696C94.359 19.328 95.5324 17.5467 96.8764 16.352C98.8604 14.56 100.94 13.664 103.116 13.664ZM109.689 21.152C113.636 21.152 116.772 22.1973 119.097 24.288C121.423 26.3787 122.585 29.216 122.585 32.8C122.585 36.384 121.423 39.2213 119.097 41.312C116.772 43.4027 113.636 44.448 109.689 44.448C105.743 44.448 102.607 43.4027 100.281 41.312C97.956 39.2213 96.7934 36.384 96.7934 32.8C96.7934 30.432 97.316 28.3733 98.3614 26.624C99.428 24.8533 100.932 23.4987 102.873 22.56C104.815 21.6213 107.087 21.152 109.689 21.152ZM104.089 40.352C105.476 42.1867 107.343 43.104 109.689 43.104C112.036 43.104 113.892 42.1867 115.257 40.352C116.644 38.496 117.337 35.9787 117.337 32.8C117.337 30.7093 117.028 28.8853 116.409 27.328C115.791 25.7707 114.905 24.576 113.753 23.744C112.601 22.912 111.247 22.496 109.689 22.496C107.343 22.496 105.476 23.424 104.089 25.28C102.724 27.1147 102.041 29.6213 102.041 32.8C102.041 35.9787 102.724 38.496 104.089 40.352ZM136.104 22.912V41.696C136.125 42.2507 136.328 42.72 136.712 43.104C137.117 43.488 137.597 43.68 138.152 43.68H138.536L138.568 44H128.84V43.68H129.256C129.789 43.68 130.248 43.488 130.632 43.104C131.037 42.72 131.261 42.2613 131.304 41.728V22.912H126.984C126.002 22.9333 125.224 23.2427 124.648 23.84C124.072 24.4373 123.784 25.216 123.784 26.176V26.56H123.464V20.992C123.762 21.12 124.296 21.248 125.064 21.376C125.853 21.504 126.578 21.568 127.24 21.568H140.136C141.181 21.5467 142.034 21.4613 142.696 21.312C143.357 21.1627 143.762 21.056 143.912 20.992V26.56H143.592V26.176C143.592 25.216 143.304 24.4373 142.728 23.84C142.152 23.2427 141.373 22.9333 140.392 22.912H136.104ZM146.088 43.68C146.643 43.68 147.112 43.488 147.496 43.104C147.901 42.6987 148.115 42.2187 148.136 41.664V23.84C148.072 23.0933 147.72 22.5387 147.08 22.176C146.76 22.0053 146.429 21.92 146.088 21.92H145.672V21.6H157.928C158.589 21.6 159.315 21.536 160.104 21.408C160.893 21.28 161.448 21.152 161.768 21.024V26.624H161.448V26.24C161.448 25.28 161.16 24.512 160.584 23.936C160.029 23.3387 159.272 23.0187 158.312 22.976H152.936V32.288H157.16C157.949 32.2667 158.6 32 159.112 31.488C159.624 30.9547 159.88 30.304 159.88 29.536V29.248H160.2V36.64H159.88V36.384C159.88 35.3173 159.453 34.528 158.6 34.016C158.173 33.7813 157.704 33.6533 157.192 33.632H152.936V42.624H157.128C158.685 42.624 159.987 42.176 161.032 41.28C162.099 40.384 162.888 39.1147 163.4 37.472H163.72L162.248 44H145.672V43.68H146.088ZM18.1486 77.912C17.2953 79.2773 16.8686 80.6747 16.8686 82.104C16.8686 83.6613 17.434 85.08 18.5646 86.36C19.1833 87.0853 19.962 87.6507 20.9006 88.056C21.8606 88.4613 22.906 88.664 24.0366 88.664C25.1673 88.664 26.1806 88.4507 27.0766 88.024C28.8686 87.1493 29.7646 85.72 29.7646 83.736C29.7646 82.9893 29.5086 82.2 28.9966 81.368C28.506 80.536 27.7593 79.7893 26.7566 79.128L21.3166 75.48C19.2046 74.1573 18.1486 72.4507 18.1486 70.36C18.1486 70.1467 18.1593 69.9333 18.1806 69.72C18.3086 68.0773 18.9593 66.744 20.1326 65.72C21.3273 64.6747 22.9166 64.152 24.9006 64.152C26.1166 64.152 27.5886 64.2587 29.3166 64.472H31.3006L30.8846 69.176H30.5966C30.5753 68.0667 30.1486 67.1813 29.3166 66.52C28.4846 65.8373 27.386 65.496 26.0206 65.496C24.3566 65.496 23.1513 65.9973 22.4046 67C22.042 67.512 21.8606 68.0667 21.8606 68.664C21.8606 69.2613 22.042 69.7733 22.4046 70.2C22.7673 70.6053 23.3433 71.0533 24.1326 71.544L30.1166 75.448C31.3326 76.2373 32.282 77.1653 32.9646 78.232C33.7753 79.4907 34.1806 80.7813 34.1806 82.104C34.1806 82.9573 33.9993 83.864 33.6366 84.824C33.2953 85.7627 32.7193 86.6373 31.9086 87.448C31.1193 88.2587 30.0953 88.92 28.8366 89.432C27.578 89.944 26.1806 90.2 24.6446 90.2C23.13 90.2 21.754 89.9333 20.5166 89.4C18.234 88.44 16.7833 86.7653 16.1646 84.376C16.0366 83.864 15.9726 83.3307 15.9726 82.776C15.9726 80.984 16.602 79.288 17.8606 77.688L18.1486 77.912ZM60.3581 64.92H59.8141C59.3661 64.92 58.9715 65.0693 58.6301 65.368C58.3101 65.6453 58.1501 65.9973 58.1501 66.424V78.904C58.1501 81.528 57.3288 83.608 55.6861 85.144C54.0435 86.68 51.7928 87.448 48.9341 87.448C45.5635 87.448 42.9821 86.7013 41.1901 85.208C39.3981 83.6933 38.5021 81.6027 38.5021 78.936V66.52C38.5021 66.0507 38.3315 65.6667 37.9901 65.368C37.6701 65.0693 37.2755 64.92 36.8061 64.92H36.2941V64.6H45.5101V64.92H44.9981C44.5288 64.92 44.1341 65.0693 43.8141 65.368C43.4941 65.6453 43.3235 66.008 43.3021 66.456V78.68C43.3021 80.9413 43.8568 82.7333 44.9661 84.056C46.0755 85.3787 47.6008 86.04 49.5421 86.04C51.4835 86.04 53.0195 85.4213 54.1501 84.184C55.2808 82.9253 55.8568 81.2293 55.8781 79.096V66.456C55.8781 66.008 55.7075 65.6453 55.3661 65.368C55.0461 65.0693 54.6515 64.92 54.1821 64.92H53.6701V64.6H60.3581V64.92ZM75.8279 87.416C71.7105 87.416 68.4785 86.3813 66.1319 84.312C63.7852 82.2427 62.6119 79.4053 62.6119 75.8C62.6119 72.1947 63.7745 69.3573 66.0999 67.288C68.4252 65.1973 71.6145 64.152 75.6679 64.152C78.7612 64.152 81.4172 64.728 83.6359 65.88L83.6999 71.384H83.4439C82.3559 67.4587 79.8705 65.496 75.9879 65.496C73.4705 65.496 71.4759 66.4133 70.0039 68.248C68.5532 70.0613 67.8279 72.5467 67.8279 75.704C67.8279 78.8613 68.5212 81.368 69.9079 83.224C71.3159 85.08 73.2145 86.04 75.6039 86.104C78.0785 86.104 79.9665 85.4853 81.2679 84.248C82.5905 82.968 83.5079 80.7707 84.0199 77.656H84.2759L84.5959 83.16C82.8679 86.0187 79.9452 87.4373 75.8279 87.416ZM100.797 87.416C96.6793 87.416 93.4473 86.3813 91.1006 84.312C88.754 82.2427 87.5806 79.4053 87.5806 75.8C87.5806 72.1947 88.7433 69.3573 91.0686 67.288C93.394 65.1973 96.5833 64.152 100.637 64.152C103.73 64.152 106.386 64.728 108.605 65.88L108.669 71.384H108.413C107.325 67.4587 104.839 65.496 100.957 65.496C98.4393 65.496 96.4446 66.4133 94.9726 68.248C93.522 70.0613 92.7966 72.5467 92.7966 75.704C92.7966 78.8613 93.49 81.368 94.8766 83.224C96.2846 85.08 98.1833 86.04 100.573 86.104C103.047 86.104 104.935 85.4853 106.237 84.248C107.559 82.968 108.477 80.7707 108.989 77.656H109.245L109.565 83.16C107.837 86.0187 104.914 87.4373 100.797 87.416ZM112.776 86.68C113.33 86.68 113.8 86.488 114.184 86.104C114.589 85.6987 114.802 85.2187 114.824 84.664V66.84C114.76 66.0933 114.408 65.5387 113.768 65.176C113.448 65.0053 113.117 64.92 112.776 64.92H112.36V64.6H124.616C125.277 64.6 126.002 64.536 126.792 64.408C127.581 64.28 128.136 64.152 128.456 64.024V69.624H128.136V69.24C128.136 68.28 127.848 67.512 127.272 66.936C126.717 66.3387 125.96 66.0187 125 65.976H119.624V75.288H123.848C124.637 75.2667 125.288 75 125.8 74.488C126.312 73.9547 126.568 73.304 126.568 72.536V72.248H126.888V79.64H126.568V79.384C126.568 78.3173 126.141 77.528 125.288 77.016C124.861 76.7813 124.392 76.6533 123.88 76.632H119.624V85.624H123.816C125.373 85.624 126.674 85.176 127.72 84.28C128.786 83.384 129.576 82.1147 130.088 80.472H130.408L128.936 87H112.36V86.68H112.776ZM132.803 84.024C132.803 82.488 133.134 81.176 133.795 80.088H134.083C134.062 80.2587 134.051 80.4293 134.051 80.6C134.051 82.072 134.574 83.3627 135.619 84.472C136.686 85.56 138.136 86.104 139.971 86.104C141.4 86.104 142.51 85.7627 143.299 85.08C144.11 84.3973 144.515 83.5333 144.515 82.488C144.515 81.2293 143.662 80.1307 141.955 79.192L136.387 75.512C135.278 74.872 134.478 74.104 133.987 73.208C133.518 72.2907 133.283 71.3627 133.283 70.424C133.283 68.4187 133.912 66.872 135.171 65.784C136.451 64.696 138.083 64.152 140.067 64.152C141.24 64.152 142.691 64.2587 144.419 64.472H146.435L146.019 69.176H145.699C145.699 68.0667 145.283 67.1813 144.451 66.52C143.64 65.8373 142.552 65.496 141.187 65.496C139.523 65.496 138.318 66.008 137.571 67.032C137.187 67.5227 136.995 68.0773 136.995 68.696C136.995 69.72 137.742 70.6693 139.235 71.544L145.347 75.512C147.267 76.6213 148.227 78.2533 148.227 80.408C148.227 82.6907 147.448 84.44 145.891 85.656C144.355 86.8507 142.307 87.448 139.747 87.448C138.296 87.448 136.952 87.2773 135.715 86.936C134.499 86.5733 133.603 86.0933 133.027 85.496C132.878 85.0907 132.803 84.6 132.803 84.024ZM158.124 65.976V75.288H162.348C163.137 75.2667 163.788 75 164.3 74.488C164.812 73.976 165.068 73.3253 165.068 72.536V72.248H165.388V79.64H165.068V79.384C165.068 78.5947 164.812 77.944 164.3 77.432C163.809 76.92 163.169 76.6533 162.38 76.632H158.124V84.664C158.124 85.4533 158.465 86.04 159.148 86.424C159.468 86.5947 159.809 86.68 160.172 86.68H160.556L160.588 87H150.86V86.68H151.276C151.83 86.68 152.3 86.488 152.684 86.104C153.089 85.6987 153.302 85.2187 153.324 84.664V66.84C153.281 66.3067 153.057 65.8587 152.652 65.496C152.268 65.112 151.809 64.92 151.276 64.92H150.86V64.6H163.116C164.161 64.6 165.025 64.5253 165.708 64.376C166.39 64.2053 166.806 64.088 166.956 64.024V69.432H166.636V69.112C166.636 68.1733 166.358 67.4267 165.804 66.872C165.27 66.296 164.534 65.9973 163.596 65.976H158.124ZM193.827 64.92H193.283C192.835 64.92 192.44 65.0693 192.099 65.368C191.779 65.6453 191.619 65.9973 191.619 66.424V78.904C191.619 81.528 190.798 83.608 189.155 85.144C187.512 86.68 185.262 87.448 182.403 87.448C179.032 87.448 176.451 86.7013 174.659 85.208C172.867 83.6933 171.971 81.6027 171.971 78.936V66.52C171.971 66.0507 171.8 65.6667 171.459 65.368C171.139 65.0693 170.744 64.92 170.275 64.92H169.763V64.6H178.979V64.92H178.467C177.998 64.92 177.603 65.0693 177.283 65.368C176.963 65.6453 176.792 66.008 176.771 66.456V78.68C176.771 80.9413 177.326 82.7333 178.435 84.056C179.544 85.3787 181.07 86.04 183.011 86.04C184.952 86.04 186.488 85.4213 187.619 84.184C188.75 82.9253 189.326 81.2293 189.347 79.096V66.456C189.347 66.008 189.176 65.6453 188.835 65.368C188.515 65.0693 188.12 64.92 187.651 64.92H187.139V64.6H193.827V64.92ZM196.307 86.68C196.862 86.68 197.331 86.488 197.715 86.104C198.12 85.6987 198.334 85.2187 198.355 84.664V66.936C198.334 66.3813 198.12 65.912 197.715 65.528C197.331 65.1227 196.862 64.92 196.307 64.92H195.891V64.6H205.619L205.587 64.92H205.203C204.648 64.92 204.168 65.1227 203.763 65.528C203.358 65.912 203.155 66.3813 203.155 66.936V85.624H207.347C208.904 85.624 210.206 85.176 211.251 84.28C212.318 83.384 213.107 82.1147 213.619 80.472H213.939L212.467 87H195.891V86.68H196.307ZM220.442 74.872L219.29 80.408H217.818L216.698 74.872L216.09 64.536H221.018L220.442 74.872ZM220.154 86.648C219.706 87.096 219.162 87.32 218.522 87.32C217.882 87.32 217.338 87.096 216.89 86.648C216.442 86.2 216.218 85.656 216.218 85.016C216.218 84.376 216.442 83.832 216.89 83.384C217.338 82.9147 217.882 82.68 218.522 82.68C219.162 82.68 219.706 82.9147 220.154 83.384C220.623 83.832 220.858 84.376 220.858 85.016C220.858 85.656 220.623 86.2 220.154 86.648Z" fill="url(#paint0_linear_100_97)"/>
</g>
<defs>
<filter id="filter0_ddi_100_97" x="0.472656" y="0.164062" width="236.045" height="107.536" filterUnits="userSpaceOnUse" color-interpolation-filters="sRGB">
<feFlood flood-opacity="0" result="BackgroundImageFix"/>
<feColorMatrix in="SourceAlpha" type="matrix" values="0 0 0 0 0 0 0 0 0 0 0 0 0 0 0 0 0 0 127 0" result="hardAlpha"/>
<feOffset dy="2"/>
<feGaussianBlur stdDeviation="7.75"/>
<feComposite in2="hardAlpha" operator="out"/>
<feColorMatrix type="matrix" values="0 0 0 0 0.6 0 0 0 0 0.856 0 0 0 0 1 0 0 0 0.62 0"/>
<feBlend mode="normal" in2="BackgroundImageFix" result="effect1_dropShadow_100_97"/>
<feColorMatrix in="SourceAlpha" type="matrix" values="0 0 0 0 0 0 0 0 0 0 0 0 0 0 0 0 0 0 127 0" result="hardAlpha"/>
<feOffset dy="2"/>
<feGaussianBlur stdDeviation="1"/>
<feComposite in2="hardAlpha" operator="out"/>
<feColorMatrix type="matrix" values="0 0 0 0 0 0 0 0 0 0 0 0 0 0 0 0 0 0 0.25 0"/>
<feBlend mode="normal" in2="effect1_dropShadow_100_97" result="effect2_dropShadow_100_97"/>
<feBlend mode="normal" in="SourceGraphic" in2="effect2_dropShadow_100_97" result="shape"/>
<feColorMatrix in="SourceAlpha" type="matrix" values="0 0 0 0 0 0 0 0 0 0 0 0 0 0 0 0 0 0 127 0" result="hardAlpha"/>
<feOffset dy="2"/>
<feGaussianBlur stdDeviation="1"/>
<feComposite in2="hardAlpha" operator="arithmetic" k2="-1" k3="1"/>
<feColorMatrix type="matrix" values="0 0 0 0 0.85 0 0 0 0 0.216042 0 0 0 0 0.562792 0 0 0 0.3 0"/>
<feBlend mode="normal" in2="shape" result="effect3_innerShadow_100_97"/>
</filter>
<linearGradient id="paint0_linear_100_97" x1="118.799" y1="56" x2="120.041" y2="98.9699" gradientUnits="userSpaceOnUse">
<stop stop-color="#FFC5B4"/>
<stop offset="1" stop-color="#F49071"/>
</linearGradient>
</defs>
</svg>
