<svg width="232" height="149" viewBox="0 0 232 149" fill="none" xmlns="http://www.w3.org/2000/svg">
<g filter="url(#filter0_ddi_100_37)">
<path d="M75.356 24.488C75.42 25.128 75.452 25.9387 75.452 26.92C75.452 27.88 75.26 29.064 74.876 30.472C74.492 31.8587 73.7987 33.0853 72.796 34.152C70.748 36.3493 67.932 37.448 64.348 37.448C59.996 37.448 56.5613 36.3813 54.044 34.248C51.5267 32.0933 50.268 29.288 50.268 25.832C50.268 22.3547 51.5373 19.5387 54.076 17.384C56.636 15.2293 60.0067 14.152 64.188 14.152C65.788 14.152 67.3133 14.312 68.764 14.632C70.2147 14.952 71.42 15.368 72.38 15.88L72.444 21.384H72.188C71.8253 20.0187 71.2173 18.8773 70.364 17.96C68.828 16.3173 66.7587 15.496 64.156 15.496C61.5533 15.496 59.452 16.424 57.852 18.28C56.2733 20.136 55.484 22.6 55.484 25.672C55.484 28.7227 56.3053 31.208 57.948 33.128C59.612 35.048 61.8947 36.04 64.796 36.104C67.932 36.104 70.428 35.1013 72.284 33.096C74.14 31.0907 75.068 28.3707 75.068 24.936C75.068 24.7867 75.068 24.6373 75.068 24.488H75.356ZM92.678 36.68C93.2327 36.68 93.6593 36.5413 93.958 36.264C94.4487 35.7733 94.7047 35.2507 94.726 34.696V26.536H84.358V34.664C84.358 35.2187 84.5607 35.6987 84.966 36.104C85.3713 36.488 85.8513 36.68 86.406 36.68H86.79L86.822 37H77.094V36.68H77.51C78.0647 36.68 78.534 36.488 78.918 36.104C79.3233 35.6987 79.5367 35.2187 79.558 34.664V16.904C79.5367 16.3493 79.3233 15.88 78.918 15.496C78.534 15.112 78.0647 14.92 77.51 14.92H77.094V14.6H86.822L86.79 14.92H86.406C85.8513 14.92 85.3713 15.112 84.966 15.496C84.5607 15.88 84.358 16.3493 84.358 16.904V25.16H94.726V16.904C94.7047 16.3493 94.4913 15.88 94.086 15.496C93.702 15.112 93.2327 14.92 92.678 14.92H92.262V14.6H101.99V14.92H101.574C101.019 14.92 100.539 15.1227 100.134 15.528C99.7287 15.912 99.526 16.3813 99.526 16.936V34.664C99.526 35.2187 99.7287 35.6987 100.134 36.104C100.539 36.488 101.019 36.68 101.574 36.68H101.99V37H92.262V36.68H92.678ZM116.674 14.152C120.62 14.152 123.756 15.1973 126.082 17.288C128.407 19.3787 129.57 22.216 129.57 25.8C129.57 29.384 128.407 32.2213 126.082 34.312C123.756 36.4027 120.62 37.448 116.674 37.448C112.727 37.448 109.591 36.4027 107.266 34.312C104.94 32.2213 103.778 29.384 103.778 25.8C103.778 23.432 104.3 21.3733 105.346 19.624C106.412 17.8533 107.916 16.4987 109.858 15.56C111.799 14.6213 114.071 14.152 116.674 14.152ZM111.074 33.352C112.46 35.1867 114.327 36.104 116.674 36.104C119.02 36.104 120.876 35.1867 122.242 33.352C123.628 31.496 124.322 28.9787 124.322 25.8C124.322 23.7093 124.012 21.8853 123.394 20.328C122.775 18.7707 121.89 17.576 120.738 16.744C119.586 15.912 118.231 15.496 116.674 15.496C114.327 15.496 112.46 16.424 111.074 18.28C109.708 20.1147 109.026 22.6213 109.026 25.8C109.026 28.9787 109.708 31.496 111.074 33.352ZM129.955 14.152C133.902 14.152 137.038 15.1973 139.363 17.288C141.688 19.3787 142.851 22.216 142.851 25.8C142.851 29.384 141.688 32.2213 139.363 34.312C137.038 36.4027 133.902 37.448 129.955 37.448C126.008 37.448 122.872 36.4027 120.547 34.312C118.222 32.2213 117.059 29.384 117.059 25.8C117.059 23.432 117.582 21.3733 118.627 19.624C119.694 17.8533 121.198 16.4987 123.139 15.56C125.08 14.6213 127.352 14.152 129.955 14.152ZM124.355 33.352C125.742 35.1867 127.608 36.104 129.955 36.104C132.302 36.104 134.158 35.1867 135.523 33.352C136.91 31.496 137.603 28.9787 137.603 25.8C137.603 23.7093 137.294 21.8853 136.675 20.328C136.056 18.7707 135.171 17.576 134.019 16.744C132.867 15.912 131.512 15.496 129.955 15.496C127.608 15.496 125.742 16.424 124.355 18.28C122.99 20.1147 122.307 22.6213 122.307 25.8C122.307 28.9787 122.99 31.496 124.355 33.352ZM145.6 34.024C145.6 32.488 145.931 31.176 146.592 30.088H146.88C146.859 30.2587 146.848 30.4293 146.848 30.6C146.848 32.072 147.371 33.3627 148.416 34.472C149.483 35.56 150.933 36.104 152.768 36.104C154.197 36.104 155.307 35.7627 156.096 35.08C156.907 34.3973 157.312 33.5333 157.312 32.488C157.312 31.2293 156.459 30.1307 154.752 29.192L149.184 25.512C148.075 24.872 147.275 24.104 146.784 23.208C146.315 22.2907 146.08 21.3627 146.08 20.424C146.08 18.4187 146.709 16.872 147.968 15.784C149.248 14.696 150.88 14.152 152.864 14.152C154.037 14.152 155.488 14.2587 157.216 14.472H159.232L158.816 19.176H158.496C158.496 18.0667 158.08 17.1813 157.248 16.52C156.437 15.8373 155.349 15.496 153.984 15.496C152.32 15.496 151.115 16.008 150.368 17.032C149.984 17.5227 149.792 18.0773 149.792 18.696C149.792 19.72 150.539 20.6693 152.032 21.544L158.144 25.512C160.064 26.6213 161.024 28.2533 161.024 30.408C161.024 32.6907 160.245 34.44 158.688 35.656C157.152 36.8507 155.104 37.448 152.544 37.448C151.093 37.448 149.749 37.2773 148.512 36.936C147.296 36.5733 146.4 36.0933 145.824 35.496C145.675 35.0907 145.6 34.6 145.6 34.024ZM164.073 36.68C164.627 36.68 165.097 36.488 165.481 36.104C165.886 35.6987 166.099 35.2187 166.121 34.664V16.84C166.057 16.0933 165.705 15.5387 165.065 15.176C164.745 15.0053 164.414 14.92 164.073 14.92H163.657V14.6H175.913C176.574 14.6 177.299 14.536 178.089 14.408C178.878 14.28 179.433 14.152 179.753 14.024V19.624H179.433V19.24C179.433 18.28 179.145 17.512 178.569 16.936C178.014 16.3387 177.257 16.0187 176.297 15.976H170.921V25.288H175.145C175.934 25.2667 176.585 25 177.097 24.488C177.609 23.9547 177.865 23.304 177.865 22.536V22.248H178.185V29.64H177.865V29.384C177.865 28.3173 177.438 27.528 176.585 27.016C176.158 26.7813 175.689 26.6533 175.177 26.632H170.921V35.624H175.113C176.67 35.624 177.971 35.176 179.017 34.28C180.083 33.384 180.873 32.1147 181.385 30.472H181.705L180.233 37H163.657V36.68H164.073ZM61.3872 55.744C61.7286 55.7227 62.2726 55.712 63.0192 55.712C63.7446 55.712 64.7046 55.872 65.8993 56.192C67.1153 56.4907 68.2353 56.9707 69.2593 57.632C70.2833 58.2933 71.2219 59.0933 72.0753 60.032C73.6539 61.7813 74.8913 63.8827 75.7873 66.336C77.0673 62.688 78.7313 59.8933 80.7793 57.952C82.3366 56.48 84.0539 55.744 85.9313 55.744C86.0166 55.744 86.1019 55.744 86.1873 55.744V56.064C85.1206 56.0853 84.0113 56.6507 82.8593 57.76C81.7286 58.848 80.7366 60.1707 79.8833 61.728C79.0299 63.2853 78.3046 64.9067 77.7073 66.592C77.1313 68.2773 76.7899 69.7387 76.6833 70.976V77.664C76.6833 78.1973 76.8753 78.6667 77.2593 79.072C77.6646 79.4773 78.1553 79.68 78.7313 79.68H79.1473V80H69.4193V79.68H69.8353C70.3899 79.68 70.8593 79.488 71.2433 79.104C71.6486 78.6987 71.8619 78.2187 71.8833 77.664V70.944C71.6273 68.64 70.8593 66.1973 69.5793 63.616C68.1073 60.6293 66.4539 58.5067 64.6193 57.248C63.5526 56.5013 62.4752 56.1067 61.3872 56.064V55.744ZM97.0175 57.152C100.964 57.152 104.1 58.1973 106.426 60.288C108.751 62.3787 109.914 65.216 109.914 68.8C109.914 72.384 108.751 75.2213 106.426 77.312C104.1 79.4027 100.964 80.448 97.0175 80.448C93.0708 80.448 89.9348 79.4027 87.6095 77.312C85.2842 75.2213 84.1215 72.384 84.1215 68.8C84.1215 66.432 84.6442 64.3733 85.6895 62.624C86.7562 60.8533 88.2602 59.4987 90.2015 58.56C92.1428 57.6213 94.4148 57.152 97.0175 57.152ZM91.4175 76.352C92.8042 78.1867 94.6708 79.104 97.0175 79.104C99.3642 79.104 101.22 78.1867 102.586 76.352C103.972 74.496 104.666 71.9787 104.666 68.8C104.666 66.7093 104.356 64.8853 103.738 63.328C103.119 61.7707 102.234 60.576 101.082 59.744C99.9295 58.912 98.5748 58.496 97.0175 58.496C94.6708 58.496 92.8042 59.424 91.4175 61.28C90.0522 63.1147 89.3695 65.6213 89.3695 68.8C89.3695 71.9787 90.0522 74.496 91.4175 76.352ZM135.874 57.92H135.33C134.882 57.92 134.487 58.0693 134.146 58.368C133.826 58.6453 133.666 58.9973 133.666 59.424V71.904C133.666 74.528 132.844 76.608 131.202 78.144C129.559 79.68 127.308 80.448 124.45 80.448C121.079 80.448 118.498 79.7013 116.706 78.208C114.914 76.6933 114.018 74.6027 114.018 71.936V59.52C114.018 59.0507 113.847 58.6667 113.506 58.368C113.186 58.0693 112.791 57.92 112.322 57.92H111.81V57.6H121.026V57.92H120.514C120.044 57.92 119.65 58.0693 119.33 58.368C119.01 58.6453 118.839 59.008 118.818 59.456V71.68C118.818 73.9413 119.372 75.7333 120.482 77.056C121.591 78.3787 123.116 79.04 125.058 79.04C126.999 79.04 128.535 78.4213 129.666 77.184C130.796 75.9253 131.372 74.2293 131.394 72.096V59.456C131.394 59.008 131.223 58.6453 130.882 58.368C130.562 58.0693 130.167 57.92 129.698 57.92H129.186V57.6H135.874V57.92ZM146.77 59.008H145.394C145.351 59.008 145.319 59.008 145.298 59.008V77.664C145.319 78.4533 145.66 79.04 146.322 79.424C146.642 79.5947 146.983 79.68 147.346 79.68H147.762V80H138.034V79.68H138.45C139.218 79.68 139.804 79.3493 140.21 78.688C140.38 78.3893 140.476 78.0587 140.498 77.696V59.936C140.476 59.3813 140.263 58.912 139.858 58.528C139.474 58.1227 139.004 57.92 138.45 57.92H138.034V57.6H149.01C151.079 57.6 152.828 58.048 154.258 58.944C154.983 59.392 155.559 60.0213 155.986 60.832C156.412 61.6213 156.626 62.528 156.626 63.552C156.626 64.5547 156.444 65.4827 156.082 66.336C155.74 67.1893 155.154 67.936 154.322 68.576C153.511 69.216 152.53 69.6 151.378 69.728C152.615 70.1333 153.703 71.072 154.642 72.544C156.946 76.2347 158.652 78.432 159.762 79.136C160.316 79.4773 161.01 79.6587 161.842 79.68V80H158.706C156.892 80 155.378 79.7547 154.162 79.264C152.946 78.752 151.954 77.888 151.186 76.672C150.802 76.0533 150.311 75.1253 149.714 73.888C149.116 72.6293 148.722 71.7333 148.53 71.2C147.954 69.92 147.228 69.2053 146.354 69.056V68.736H147.346C148.306 68.736 149.148 68.448 149.874 67.872C150.62 67.296 151.122 66.3573 151.378 65.056C151.463 64.608 151.506 64.256 151.506 64C151.506 62.2507 151.154 60.992 150.45 60.224C149.746 59.4347 148.839 59.0293 147.73 59.008C147.516 59.008 147.196 59.008 146.77 59.008ZM41.3091 110.488C41.3731 111.128 41.4051 111.939 41.4051 112.92C41.4051 113.88 41.2131 115.064 40.8291 116.472C40.4451 117.859 39.7518 119.085 38.7491 120.152C36.7011 122.349 33.8851 123.448 30.3011 123.448C25.9491 123.448 22.5145 122.381 19.9971 120.248C17.4798 118.093 16.2211 115.288 16.2211 111.832C16.2211 108.355 17.4905 105.539 20.0291 103.384C22.5891 101.229 25.9598 100.152 30.1411 100.152C31.7411 100.152 33.2665 100.312 34.7171 100.632C36.1678 100.952 37.3731 101.368 38.3331 101.88L38.3971 107.384H38.1411C37.7785 106.019 37.1705 104.877 36.3171 103.96C34.7811 102.317 32.7118 101.496 30.1091 101.496C27.5065 101.496 25.4051 102.424 23.8051 104.28C22.2265 106.136 21.4371 108.6 21.4371 111.672C21.4371 114.723 22.2585 117.208 23.9011 119.128C25.5651 121.048 27.8478 122.04 30.7491 122.104C33.8851 122.104 36.3811 121.101 38.2371 119.096C40.0931 117.091 41.0211 114.371 41.0211 110.936C41.0211 110.787 41.0211 110.637 41.0211 110.488H41.3091ZM65.3191 122.68H65.6071V123H55.3991V122.68H55.6871C56.1565 122.68 56.4978 122.541 56.7111 122.264C56.9458 121.965 57.0631 121.688 57.0631 121.432C57.0631 121.176 57.0098 120.92 56.9031 120.664L55.3351 116.728H47.8471L46.1831 120.664C46.0765 120.941 46.0231 121.208 46.0231 121.464C46.0231 121.699 46.1298 121.965 46.3431 122.264C46.5778 122.541 46.9405 122.68 47.4311 122.68H47.6871V123H40.8391V122.68H41.1271C41.6178 122.68 42.1085 122.531 42.5991 122.232C43.0898 121.933 43.4951 121.485 43.8151 120.888L51.2071 104.152C52.2098 102.04 52.7431 100.643 52.8071 99.96H53.0951L62.5991 120.824C62.9191 121.443 63.3245 121.912 63.8151 122.232C64.3058 122.531 64.8071 122.68 65.3191 122.68ZM48.3911 115.384H54.7911L51.6871 107.512L48.3911 115.384ZM90.7534 100.92C90.22 100.92 89.7614 101.112 89.3774 101.496C88.9934 101.859 88.7907 102.307 88.7694 102.84V119.352C88.7694 120.781 88.8654 121.987 89.0574 122.968L89.1534 123.448H88.8654L72.7054 108.056V120.76C72.7054 121.293 72.8974 121.752 73.2814 122.136C73.6654 122.499 74.124 122.68 74.6574 122.68H75.2654V123H65.5694V122.68H66.1454C66.7 122.68 67.1694 122.499 67.5534 122.136C67.9374 121.752 68.1294 121.283 68.1294 120.728V104.12C68.1294 102.712 68.0334 101.539 67.8414 100.6L67.7774 100.12H68.0654L84.2254 115.512V102.872C84.204 102.317 84.0014 101.859 83.6174 101.496C83.2334 101.112 82.7747 100.92 82.2414 100.92H81.6654V100.6H91.3614V100.92H90.7534ZM105.132 100.6C108.908 100.6 111.895 101.603 114.092 103.608C116.289 105.613 117.388 108.344 117.388 111.8C117.388 115.256 116.289 117.987 114.092 119.992C111.895 121.997 108.908 123 105.132 123H93.5159V122.68H93.9319C94.4865 122.68 94.9559 122.488 95.3399 122.104C95.7452 121.699 95.9585 121.219 95.9799 120.664V102.744C95.9159 102.232 95.6919 101.805 95.3079 101.464C94.9239 101.101 94.4652 100.92 93.9319 100.92H93.5159V100.6H105.132ZM104.716 121.656C106.252 121.656 107.575 121.261 108.684 120.472C109.815 119.661 110.679 118.52 111.276 117.048C111.873 115.555 112.172 113.805 112.172 111.8C112.172 108.771 111.5 106.371 110.156 104.6C108.833 102.829 107.02 101.944 104.716 101.944H100.78V121.656H104.716ZM119.807 122.68C120.362 122.68 120.831 122.488 121.215 122.104C121.62 121.699 121.834 121.219 121.855 120.664V102.904C121.834 102.349 121.62 101.88 121.215 101.496C120.831 101.112 120.362 100.92 119.807 100.92H119.391V100.6H129.119L129.087 100.92H128.703C128.148 100.92 127.668 101.112 127.263 101.496C126.858 101.88 126.655 102.349 126.655 102.904V120.664C126.655 121.219 126.858 121.699 127.263 122.104C127.668 122.488 128.148 122.68 128.703 122.68H129.087L129.119 123H119.391V122.68H119.807ZM143.351 100.6C147.127 100.6 150.113 101.603 152.311 103.608C154.508 105.613 155.607 108.344 155.607 111.8C155.607 115.256 154.508 117.987 152.311 119.992C150.113 121.997 147.127 123 143.351 123H131.735V122.68H132.151C132.705 122.68 133.175 122.488 133.559 122.104C133.964 121.699 134.177 121.219 134.199 120.664V102.744C134.135 102.232 133.911 101.805 133.527 101.464C133.143 101.101 132.684 100.92 132.151 100.92H131.735V100.6H143.351ZM142.935 121.656C144.471 121.656 145.793 121.261 146.903 120.472C148.033 119.661 148.897 118.52 149.495 117.048C150.092 115.555 150.391 113.805 150.391 111.8C150.391 108.771 149.719 106.371 148.375 104.6C147.052 102.829 145.239 101.944 142.935 101.944H138.999V121.656H142.935ZM186.771 128.856C184.446 130.029 182.089 130.221 179.699 129.432C177.161 128.621 174.974 126.893 173.139 124.248C172.158 122.84 171.315 121.208 170.611 119.352L169.587 116.632H162.035L160.339 120.664C160.233 120.941 160.179 121.165 160.179 121.336C160.179 121.507 160.211 121.699 160.275 121.912C160.361 122.104 160.521 122.285 160.755 122.456C161.011 122.605 161.289 122.68 161.587 122.68H161.843V123H154.995V122.68H155.283C155.774 122.68 156.254 122.541 156.723 122.264C157.214 121.965 157.619 121.528 157.939 120.952L165.075 104.664C164.243 102.787 163.358 101.496 162.419 100.792C161.63 100.195 160.873 99.896 160.147 99.896C159.443 99.896 158.782 100.003 158.163 100.216L158.099 99.896C159.635 99.1067 161.107 98.712 162.515 98.712C164.265 98.712 165.833 99.3947 167.219 100.76C168.585 102.104 169.79 104.045 170.835 106.584L175.475 118.04C177.225 122.371 179.017 125.347 180.851 126.968C181.598 127.629 182.366 128.088 183.155 128.344C183.945 128.6 184.606 128.728 185.139 128.728C185.694 128.728 186.227 128.664 186.739 128.536L186.771 128.856ZM162.579 115.256H169.107L166.867 109.336C166.761 109.037 166.611 108.632 166.419 108.12C166.227 107.587 166.099 107.213 166.035 107L162.579 115.256ZM188.135 101.912V120.696C188.156 121.251 188.359 121.72 188.743 122.104C189.148 122.488 189.628 122.68 190.183 122.68H190.567L190.599 123H180.871V122.68H181.287C181.82 122.68 182.279 122.488 182.663 122.104C183.068 121.72 183.292 121.261 183.335 120.728V101.912H179.015C178.034 101.933 177.255 102.243 176.679 102.84C176.103 103.437 175.815 104.216 175.815 105.176V105.56H175.495V99.992C175.794 100.12 176.327 100.248 177.095 100.376C177.884 100.504 178.61 100.568 179.271 100.568H192.167C193.212 100.547 194.066 100.461 194.727 100.312C195.388 100.163 195.794 100.056 195.943 99.992V105.56H195.623V105.176C195.623 104.216 195.335 103.437 194.759 102.84C194.183 102.243 193.404 101.933 192.423 101.912H188.135ZM198.119 122.68C198.674 122.68 199.143 122.488 199.527 122.104C199.933 121.699 200.146 121.219 200.167 120.664V102.84C200.103 102.093 199.751 101.539 199.111 101.176C198.791 101.005 198.461 100.92 198.119 100.92H197.703V100.6H209.959C210.621 100.6 211.346 100.536 212.135 100.408C212.925 100.28 213.479 100.152 213.799 100.024V105.624H213.479V105.24C213.479 104.28 213.191 103.512 212.615 102.936C212.061 102.339 211.303 102.019 210.343 101.976H204.967V111.288H209.191C209.981 111.267 210.631 111 211.143 110.488C211.655 109.955 211.911 109.304 211.911 108.536V108.248H212.231V115.64H211.911V115.384C211.911 114.317 211.485 113.528 210.631 113.016C210.205 112.781 209.735 112.653 209.223 112.632H204.967V121.624H209.159C210.717 121.624 212.018 121.176 213.063 120.28C214.13 119.384 214.919 118.115 215.431 116.472H215.751L214.279 123H197.703V122.68H198.119Z" fill="url(#paint0_linear_100_37)"/>
</g>
<defs>
<filter id="filter0_ddi_100_37" x="0.721191" y="0.523926" width="230.53" height="147.592" filterUnits="userSpaceOnUse" color-interpolation-filters="sRGB">
<feFlood flood-opacity="0" result="BackgroundImageFix"/>
<feColorMatrix in="SourceAlpha" type="matrix" values="0 0 0 0 0 0 0 0 0 0 0 0 0 0 0 0 0 0 127 0" result="hardAlpha"/>
<feOffset dy="2"/>
<feGaussianBlur stdDeviation="7.75"/>
<feComposite in2="hardAlpha" operator="out"/>
<feColorMatrix type="matrix" values="0 0 0 0 0.6 0 0 0 0 0.856 0 0 0 0 1 0 0 0 0.62 0"/>
<feBlend mode="normal" in2="BackgroundImageFix" result="effect1_dropShadow_100_37"/>
<feColorMatrix in="SourceAlpha" type="matrix" values="0 0 0 0 0 0 0 0 0 0 0 0 0 0 0 0 0 0 127 0" result="hardAlpha"/>
<feOffset dy="2"/>
<feGaussianBlur stdDeviation="1"/>
<feComposite in2="hardAlpha" operator="out"/>
<feColorMatrix type="matrix" values="0 0 0 0 0 0 0 0 0 0 0 0 0 0 0 0 0 0 0.25 0"/>
<feBlend mode="normal" in2="effect1_dropShadow_100_37" result="effect2_dropShadow_100_37"/>
<feBlend mode="normal" in="SourceGraphic" in2="effect2_dropShadow_100_37" result="shape"/>
<feColorMatrix in="SourceAlpha" type="matrix" values="0 0 0 0 0 0 0 0 0 0 0 0 0 0 0 0 0 0 127 0" result="hardAlpha"/>
<feOffset dy="2"/>
<feGaussianBlur stdDeviation="1"/>
<feComposite in2="hardAlpha" operator="arithmetic" k2="-1" k3="1"/>
<feColorMatrix type="matrix" values="0 0 0 0 0.85 0 0 0 0 0.216042 0 0 0 0 0.562792 0 0 0 0.3 0"/>
<feBlend mode="normal" in2="shape" result="effect3_innerShadow_100_37"/>
</filter>
<linearGradient id="paint0_linear_100_37" x1="115.805" y1="70.5" x2="118.679" y2="134.88" gradientUnits="userSpaceOnUse">
<stop stop-color="#FFC5B4"/>
<stop offset="1" stop-color="#F49071"/>
</linearGradient>
</defs>
</svg>
